<?xml version="1.0" encoding="utf-8"?>
<!-- Generator: Adobe Illustrator 22.1.0, SVG Export Plug-In . SVG Version: 6.00 Build 0)  -->
<svg version="1.1" id="Layer_1" xmlns="http://www.w3.org/2000/svg" xmlns:xlink="http://www.w3.org/1999/xlink" x="0px" y="0px"
	 viewBox="0 0 303 293.9" style="enable-background:new 0 0 303 293.9;" xml:space="preserve">
<style type="text/css">
	.st0{clip-path:url(#SVGID_2_);}
	.st1{fill:#FFFFFF;}
</style>
<g>
	<defs>
		<rect id="SVGID_1_" width="303" height="293.9"/>
	</defs>
	<clipPath id="SVGID_2_">
		<use xlink:href="#SVGID_1_"  style="overflow:visible;"/>
	</clipPath>
	<g class="st0">
		<g>
			<path d="M222.3,164.6c-3.4-0.4-6.1-0.8-8.7-2.9c-0.7-0.5-0.9,0.1-1.1,0.4c-1.9,3-4.2,5.7-6.8,8.1c-4.7,4.4-10.3,6.8-16.7,7.4
				c-1.5,0.1-3.1,0.2-4.6,0.5c-1.2,0.3-1.5,1.6-2.2,2.5c-2.3,2.9-4.7,5.5-7.5,8c-2.9,2.5-6.1,4.3-9.4,6c-2.9,1.5-6.1,2.6-9.3,2.9
				c-3.5,0.5-6.4,0.7-10,0.3c-5.6-0.5-9.5-2.4-12.3-6.8c-2.7-4.1-5.5-8.3-6.3-13.3c-0.6-3.4-0.9-6.9-1.4-10.3
				c-0.1-0.9-0.2-1.7-0.4-2.7c-0.1-0.6-0.2-1-0.3-1.4c-0.1,0.2-0.6,1.6-0.7,1.8c-1.8,4.7-3.7,9.2-6.7,13.3c-3.2,4.5-7,8.3-12,10.5
				c-4.4,1.9-9,3.2-13.7,3.7c-4.9,0.4-8.6,0.2-12.7-0.8c-5.6-1.3-11.2-3.2-14.8-8.2c-1.3-1.7-2.7-3.2-3.9-5.2
				c-0.3-0.6-1.2-1.1-0.5-1.9c0.8-1,1.8-0.5,2.5,0c4.4,3.4,9.5,3.4,14.7,3.3c6.4-0.1,11.5-2.8,16.6-6.5c4.7-3.4,7.5-8,10.3-12.9
				c2.8-4.8,5.3-9.8,7.2-15c1.3-3.5,2-7.1,2.4-10.7c0.8-7.6,3.6-14.4,9.3-19.7c2.5-2.3,4.9-4.6,8.1-6c2.5-1,5.1-1.1,7.7-0.8
				c2.4,0.2,2.9,1.7,2,4.8c-1.8,6.3-1.4,12.6-0.2,18.9c1.1,6.1,2.6,12.1,4.8,17.8c3,7.9,7.7,14.6,15.3,18.8c1.9,1,4,1.7,6.3,1.5
				c1-0.1,1.4-0.4,1-1.4c-1.2-2.8-2.7-5.4-3.4-8.5c-1.9-7.6-1.8-15.7,7.6-19.5c2.9-1.2,6.5-1,9.4,0.4c1.9,0.9,3.8,2.1,5,3.7
				c2.5,3.3,4,7,4.4,11.1c0.3,3.3-1,6.5-2,9.7c-0.9,2.7-1.5,5.5-3.3,7.9c-0.4,0.5-0.1,1,0.6,1.1c7.3,0.2,13.7-1.7,18.9-7.1
				c4.4-4.5,7.1-9.7,8.6-15.8c1.7-7-1.1-15.4-7.2-19.1c-2.9-1.8-6.3-2.4-9.6-3.2c-5.9-1.5-12.3-1.2-17.5-5.4
				c-4.7-3.7-6-10.1-2.6-15.1c0.7-1,1.2-2,2.3-2.9c0.4-0.3,0.6-0.8,1.1-0.4c0.5,0.3,0.7,0.7,0.7,1.3c0,1.8-0.2,3.7,1.1,5.4
				c2,2.7,6.2,2.1,8.6,1.1c0.7-0.3,1.3-0.6,1.9-1c2.9-2.2,3.6-8,1.4-11.1c-0.6-0.8-0.9-1.3-1.8-2.2c-2-1.8-6.3-2.7-8.9-2
				c-6,1.6-10,5.6-13.1,10.6c-3.3,5.2-2.5,10.5,0.5,15.7c1.9,3.3,4.1,6.4,7.8,7.6c3.8,1.3,7.8,2,11.7,3c4.2,1,8.6,1.6,11.7,4.9
				c2.7,3,2.1,6.7,0.7,10.6c-1.3,3.7-3.9,6.3-6.4,8.9c-0.7,0.8-1.7,1.3-2.7,1.3c-0.6,0-1.7,0.7-1.9-0.5c-0.1-0.9-0.5-1.8,1.1-2.3
				c4.6-1.3,9.3-8.6,8-13.4c-0.8-2.9-3.5-6.1-8.9-7.3c-6.3-1.3-12.8-1.7-18.3-6c-2.8-1.7-4.4-4.7-5.7-7.7
				c-2.8-6.4-2.2-12.7,1.6-18.4c4.2-6.4,13.1-10.4,20.4-8.6c2.7,0.7,3.9,2.1,5.6,3.8c2.3,2.5,2.6,6.6,2,9.9c-0.7,3.6-5.5,7-9.5,7
				c-3.9,0-7-1.3-8.5-5.3c-0.3-0.9-0.6-0.2-0.8,0.1c-3.1,4.8-0.6,10.8,5.6,12.8c4.7,1.5,9.6,2.2,14.5,3.2c7.5,1.5,14,4.4,17.2,12
				c0.2,0.4,0.5,0.7,1,0.7c4.7,0.1,9.3-0.2,13.5-2.9c3.4-2.2,5.7-7.8,5.3-11.8c-0.3-1.9-1-3.2-1.9-4.7c-2-3.2-4.8-3.5-8-4
				c-3.9-0.6-7.9-0.4-11.8-1.4c-5.2-1.3-9-6.3-9.6-11.9c-0.3-3-0.3-5.7,0.6-8.8c2.5-7.4,7.2-11.1,14-13.3c6.1-1.9,11.4-0.7,15.7,4.2
				c4,4.6,4.1,7.2,2,11.2c-1.6,3.1-5.9,4.9-9.4,4.6c-3.9-0.3-5.8-2.5-6.7-5.9c-0.3-0.9-0.8-0.6-1.4-0.2c-3,2.5-1.9,8.8,1.6,10.6
				c4.4,2.2,8.7,1.3,13.2,0.6c7.7-1.3,14.7,0.1,20.5,5.7c3.2,3,5.7,6.4,6.9,10.6c0.4,1.4,0.5,2.8,0.7,4.4c0.3,2.5,0.3,4.5,0.2,7.1
				c-0.2,3-1.1,6.7-2.6,9.2c-2.6,4.3-5.5,7.2-9,10.5c-2.4,2.2-4.9,4.2-7.7,5.8c-3.7,2.2-7.8,3.5-11.9,4.5
				C228.5,164.3,225.5,164.7,222.3,164.6z M189.1,157.8c0.4-7.6-3.4-13.8-8.8-15.3c-3.2-0.9-5.2-1.3-8.3,0.5
				c-4.4,2.4-5.6,6.7-6,11.3c-0.5,5,1.6,9.4,3.9,13.6c0.5,1,1.2,2.7,2.7,2.6c4.7-0.4,7.7-3.2,9.9-7.1c1-1.7,0.5-2.1-1.2-2.6
				c-4.5-1.2-8.4-3.4-9.4-8.6c-0.9-4.6,2.4-8.4,6.5-7.1c3.5,1.2,6.1,3.7,7.4,7.3c1.1,2.9,0.6,5.8-0.3,8.8c-1.2,3.9-3.3,6.8-6.5,9
				c-2.8,1.9-6.1,2.7-9.6,2.7c-2,0-4,0.4-6-0.3c-3-1-5.7-2.7-8.1-4.8c-3.8-3.2-7-6.9-9.1-11.4c-1.1-2.4-2.6-4.7-3.3-7.2
				c-0.9-3.3-2.5-6.3-3.1-9.7c-0.6-3.3-2-6.5-2.3-9.9c-0.5-5.8-1.1-11.7,1.7-17.3c0.5-0.9,0.3-2-0.8-2.1c-1.4-0.2-2.9-0.3-4.1,0.1
				c-2.9,1.1-5.5,2.6-7.8,4.7c-2.2,2-3.9,4.4-5.8,6.7c-3.5,4.2-3.7,9.4-4.7,14.5c-0.6,2.9-0.6,6.1-1.8,9c-1.9,4.9-3.7,9.8-6,14.5
				c-2.5,5-6,9.4-9.8,13.6c-3.7,4.1-8.4,6.6-13.5,8.1c-3.3,1-5.4,1.1-8.9,1.1c-0.9,0-3.2,0-4.1-0.2c-2.2-0.5-3-0.3-6.3-2
				c-0.1,0-2.9-1.9-3-1.8c0,0.1,1.7,2,1.8,2.2c1.5,2,3.4,3.6,5,4.7c7.9,5.4,16,6.5,25.4,5.1c7.4-1.1,13.8-4.1,18.8-9.7
				c3.9-4.4,6.4-9.7,8.9-14.9c2-4.2,2.6-9,3.3-13.6c0.1-0.4-0.1-0.9,0.5-0.9c0.6,0,0.7,0.4,0.8,0.9c0.4,1.4,0,2.7,0,4
				c0,6.1,1.2,12,2,18c0.4,3.1,1.2,6,2.5,8.9c0.9,1.9,2,3.7,3.1,5.3c1.9,2.8,4.5,4.9,7.6,6.4c5.1,1.6,9.8,0.9,14.8,0.4
				c3.2-0.8,4.8-1.4,7.9-3c5.1-2.7,9.2-5.9,12.6-10.2c2.5-3.2,4.7-6.6,6.7-10.1C187.2,167.1,188.6,162.3,189.1,157.8z M220.2,112.6
				c3.7,0.3,6.3,0,10.6,1.4c2.4,0.8,4.6,1.5,6.3,5.7c2.3,5.6,2.2,10.5-1.2,15.4c-4,5.8-9.8,7.8-16.4,7.2c-2.1-0.2-3.1-0.5-2.6,2
				c0.1,0.3,0.1,0.7,0.1,1c0,4.3-0.3,8.5-2.4,12.4c-0.9,1.7,0.2,2.1,2,2.9c2.6,1.2,4.7,1.3,7.4,1.1c4.7-0.3,8.3-1.2,12.2-2.7
				c8.5-3.3,16-7.7,20.6-15.9c3.7-6.6,4.3-13.6,2.7-20.9c-1.3-6-5.4-9.6-10.5-12.1c-6-3-12.4-2.5-18.8-1.9c-4,0.4-7.8,0-11.1-2.2
				c-2.7-1.9-3.4-5-2.8-8c0.7-3.8,2.6-7,6.5-8.4c0.4-0.1,0.9-0.2,1.2,0.2c0.2,0.3,0.2,0.7,0,1.1c-1.2,2.3-0.8,5.3,0.8,6.7
				c1.9,1.6,6.1,1.7,8.1,0.2c4.3-3.3,4.5-8.2,0.5-12.5c-3.7-3.9-11.3-4.7-16.5-1.3c-6,3.9-10,9.3-9.7,16.9c0.1,2.4,0.6,4.8,1.8,6.9
				C211.9,110.9,215,112.3,220.2,112.6z M178.3,147.5c-3.3,0-4.5,1.2-4.4,3.7c0,3.9,4.3,7.5,9,7.8c1.2,0.1,1.5-0.5,1.6-1.4
				c0.2-1.4,0-2.8-0.6-4.2C182.5,150.5,180.9,148,178.3,147.5z"/>
			<path d="M204.6,212.8c0-2.5,0.3-4.9,1-7.2c0.2-0.6,0.3-0.8,0.7-1.8c0-0.1,0.5-1,0.4-1.2c-0.1,0.1-0.9,0.6-1,0.7
				c-1,0.7-1.4,1.4-2.2,2.1c-1.2,1.3-1.4,2.7-1.6,4.1c-0.5,4.9-2,9.6-3.6,14.3c-1.1,3.2-1.5,5.8-3.5,9.6c-4.1,8.2-9.6,14.6-19,16.5
				c-6.1,1.3-11-0.7-12.9-5.1c-1.4-3.5-0.7-6.9,0.7-10.1c2.6-5.8,6.5-10.6,10.9-15c0.8-0.8-0.1-1.3-0.5-1.6c-2-1.5-2.6-3.6-2.7-6
				c-0.1-2.9-0.3-5.8,0.4-8.6c0.2-0.8-0.3-0.8-0.8-0.5c-2.1,1-4.2,1.8-6.2,3c-2.3,1.4-4.8,2.1-7.4,2.5c-0.5,0.1-1.2,0.4-0.7,0.8
				c1.6,1.4,2,3.5,2.9,5.2c1.4,2.7,2.7,5.6,2.5,8.8c-0.4,7-1.5,13.9-5.3,20.1c-2,3.2-5,5.2-8.5,6.3c-2.1,0.7-4.3,1.3-6.8,1.3
				c-3.3,0.3-5.8-1.4-8.1-3.3c-3.8-3-5.2-7.4-5.9-12c-0.4-3-0.5-5.9,0.4-8.8c0.1-0.2-0.1-0.4-0.1-0.7c-0.2,0.1-0.4,0.3-0.5,0.4
				c-2,1.9-1.7,3.3-1.7,5.8c-0.1,3.2,0.2,6.3-0.1,10.1c-0.7,3.2-1.1,6.4-2.3,9.5c-1.7,4.1-5.1,5.1-9,5.4c-2.3,0.2-4.5-0.1-6.7-0.7
				c-2.8-0.8-6-4.8-6.8-7.6c-0.8-3.2-1.1-6.3,0.5-9.2c1.7-3.1,4.1-5.5,7.1-7.5c2.6-1.7,3.1-3.4,2.2-6.4c0-0.1-0.3-1.1-0.5-1.5
				c-0.2-0.8-0.3-1.7-0.9-1.5c-0.7,0.1-1.3,1.3-1.7,2.1c-1.6,3.6-4.6,6-7.7,8c-2.4,1.6-5.6,2.7-8.5,3c-3.7,0.4-7.3,0.4-11-0.3
				c-3-0.5-5.5-1.6-8.3-3.4c-2.9-1.9-4.5-3.8-6.6-5.8c-1.6-1.4-2.9-3-4.2-4.6c-4.3-5.2-7.1-11.3-9.6-17.4c-2.2-5.5-5-10.8-5.9-16.8
				c-0.1-1-0.8-2.5-0.1-2.9c0.8-0.5,1.6,1,2.4,1.5c4.2,2.8,8.7,4.4,13.8,4.3c1.3,0,2.6-0.2,3.9-0.5c0.6-0.2,1.1,0.2,1.2,0.7
				c0.9,5.7,3.4,10.8,6.6,15.4c2,2.9,4.8,5.2,7.3,7.8c2.9,3.1,6.9,5.3,10.5,5.2c2.7-0.2,4.4-0.8,5.6-2.5c3.2-4.4,5.2-9.3,5.6-14.9
				c0.2-2.8,0.9-5.5,0.8-8.4c-0.1-1.8,1.6-1.8,2.7-2.2c4.9-1.6,9.5-3.7,13.3-7.2c0.8-0.7,1.5-1.7,2.1-2.5c0.3-0.4,1.3-2.3,1.9-1.9
				c0.5,0.3,0,2.1-0.5,2.9c-0.8,1.6-2.3,2.6-2.9,4.3c-1.2,3.5-1.3,7.2-1.8,10.9c-1,6.7,2.7,12.4,4.2,18.5c0.2,0.8,0.5,1.6,0.7,2.5
				c0.3,0.8,0.4,2.1,2,0.8c4-3.3,8-6.7,11.7-10.3c3.6-3.5,7.9-4.9,12.6-4.8c7.2,0.2,13.1-2.9,18.8-6.8c3.6-2.5,7.3-5.1,10.7-7.9
				c2.8-2.3,5.6-4.6,8.7-6.4c3.6-2.1,7.1-2.3,11-2.2c2.5,0.1,5.2,2,6.4,3.2c0.5,0.6,0.9,1.4,0.9,2.1c0,2.3,0.2,4.2,0.1,6.8
				c-0.1,0.2,0,0.7,0,0.9c0.2-0.1,0.4-0.4,0.5-0.6c1.9-2.6,4.2-4.7,5.9-7.4c3.3-5.2,7.4-9.9,12.5-13.6c2.3-1.7,4.4-3,7.4-2.4
				c2.9,0.6,4.3,1.9,3.9,4.9c-0.6,4.2-0.7,8.4-0.5,12.6c0.1,1.9,0,3.9,0.1,5.8c0.1,1.3,0.6,2,2.3,2c3.8,0.1,5-2.4,7-4.7
				c2.6-3.7,4.4-7.2,6.3-10.9c1.9-3.5,3.5-7.1,4.9-10.8c1-2.8,2.3-5.6,3.3-8.4c1.9-5.4,3.7-10.9,4.9-16.5c0.5-2.6,1.2-5.1,1.4-7.7
				c0-0.4-0.1-0.7,0.5-1.1c0.7,0,0.8,0.6,0.8,1.2c0,2.7-0.3,5.4-0.8,8c-0.9,4.1-1.4,8.2-2.4,12.2c-0.5,2.1-1.2,4.2-1.8,6.3
				c-1.5,4.6-3.1,9.4-4.8,13.8c-1.9,4.9-3.3,9.3-6.5,14.5c-2.3,4.1-4.2,6.7-6.6,9.6c-2.1,2.5-4.4,4.6-6.9,6.4
				c-1.7,1.2-4.5,0.5-5.8-1.2c-0.4-0.6-0.5-0.5-0.7,0.1c-0.6,1.4-1,2.9-1.4,4.3c-1.3,3.6-3.4,6.4-5.4,9.5c-1.7,2.6-3.6,5.3-6.7,6.4
				c-5.5,1.9-11.3,0.2-12.1-7.2C204.8,217.3,204.6,215.3,204.6,212.8z M65.4,195.6c-0.3-0.8-0.3-2.6-1.6-2.7
				c-1.5-0.1-3.1,0.1-4.7-0.1c-3-0.3-5.1-0.3-8-1.5c-0.4-0.1-1.6-0.7-2.2-1.1c-0.2-0.1,0.2,1.2,0.4,1.5c0.7,2.1,1.6,4.2,2.4,6.2
				c1.1,2.7,2.2,5.4,3.2,8.1c2,4.5,4.2,8.2,6.9,12.1c2.3,3.2,4.6,6.2,7.6,8.7c3.2,2.7,6.7,5,10.7,6.4c3,1,6.5,0.9,9.6,0.5
				c4.6-0.5,8.8-1.9,12.2-5.5c4.1-4.3,6.6-9.3,6.9-15.3c0-0.3-0.1-0.8,0.4-0.8c0.2,0,0.5-0.2,0.7,0.2c0.3,0.7,0.5,1.1,0.6,2
				c0.5,4.6,2.2,8.9,3,13.4c0.1,0.8,0.4,0.9,1.1,0.4c1.8-1.4,3.7-2.7,5.5-4.1c0.4-0.4,1-0.8,0.8-1.6c-1.1-4.1-2.1-8.2-3.3-12.2
				c-0.7-2.5-1.7-4.6-1.9-7.5c-0.3-4.6,0.4-8.3,0.9-12.5c0.2-1.1-0.2-1.1-1.1-0.7c-2,0.9-4.1,1.8-6.2,2.6c-1,0.4-1.4,0.9-1.6,1.8
				c-0.7,3.5-1.5,7-2.3,10.5c-1,5-2.3,9.8-5.9,13.8c-3.1,3.5-9.3,5.3-13.8,3.1c-2.6-1.3-4.8-3.1-6.9-5c-2.2-2-4.5-3.9-6.2-6.3
				c-2-2.9-3.8-5.8-5.3-9.1C66.5,199.2,66,197.9,65.4,195.6z M203.9,191.6c0-1-0.1-2.1,0-3.1c0.1-1.2-0.4-1.9-1.3-2.6
				c-5.3-3.9-10.7-2.7-15.9,0c-4.8,2.5-8.8,6.3-12.8,9.8c-5.5,4.8-11.3,8.1-18.3,10c-0.3,0.1-1.3,0.1-1.1,0.7c0.1,0.5,0.6,1.2,1.4,1
				c2.2-0.5,4.1-0.7,6.4-1.6c3.7-1.8,7.4-3.5,11.1-5.3c0.6-0.3,1.1-0.4,0.9,0.5c-0.3,2.3-0.9,4.6-1,6.9c-0.1,2.2-0.5,4.5,0.8,6.5
				c2.5,4,7.2,4.6,11.4,3.1c4.2-1.5,7.5-4.4,11.2-6.8c0.3-0.2,0.6-0.8,1.1-0.3c0.4,0.4,0.2,0.8,0,1.2c-1.7,2.8-2.2,6.1-3.2,9.1
				c-1.4,4.1-3.1,8-5.4,11.6c-3.2,5-7.1,9.2-13.1,11c-1.7,0.5-4.5,0.1-5.5-1.9c-1.4-3.6-1-7.1,1.3-10.2c3.4-4.6,7.8-8.1,12.9-10.8
				c2.5-1.3,5.2-2.6,7.6-4c0.3-0.1,0.3-0.2,0.5-0.4c0.2-0.1,0.8-0.7,0.7-0.8c-0.3,0.2-1.2,0.8-1.5,1c-2.4,1.4-4.7,2.5-7.2,3.3
				c-2.2,0.7-4.5,0.3-6.6,0.9c-3.2,0.9-5.2,3.3-7.1,5.8c-3,4-5.8,8-6.7,13c-0.6,3.1,0.6,7.1,2.8,8.3c2.7,1.4,6.7,1.8,9.6,0.8
				c3.5-1.2,5.4-2.2,8.8-5.1c1-0.8,1.8-1.9,2.7-2.9c2-2.2,3.5-4.3,4.7-7.1c1.8-3.5,2.8-6.5,3.9-9.9c0.8-2.6,1.4-5.4,2.1-8
				c0.9-3.4,0.6-7.1,2.3-10.4C203.6,200.7,204.1,196.2,203.9,191.6z M102.9,244.8c0.2,2.3,0.6,3.9,1.8,5.6c2,2.8,4.6,4.3,8.2,4.6
				c4.2,0.4,8.3-2.2,9.1-6.5c1.1-5.7,1-11.4,0.4-17.2c0-0.3,0.1-0.6-0.4-0.3c-2.5,1.1-4.6,2.9-6.6,4.6c-0.7,0.6-1,1.3-0.5,2.4
				c1,2.7,1.5,5.6,0.2,8.4c-0.5,1.2-1.4,2.3-2.9,2.4c-3.3,0.1-5.8-3.8-4.5-6.9c1.6-3.7,4.5-6.3,7.6-8.7c4.5-3.5,8.8-7.2,13.7-10.2
				c0.4-0.2,1.3-1.1,1.7-1.3c0,0.4-0.4,1.7-0.4,2.1c-0.3,3.3-1.1,6.5-0.7,9.8c0.4,3.2,0.9,6.4,3,9.1c1.8,2.3,3.6,4.5,6.5,5.3
				c5.4,0.9,9.6-0.5,13.3-3.8c2.4-2.1,4-4.9,5.2-7.9c1.7-3.9,2.9-8,2.7-12.3c-0.1-4.1-1.6-8.2-3.9-11.6c-1.2-1.8-2.4-3.3-4-4.7
				c-2.4-2.1-7.2-1.3-9.9,0.2c-4.5,3.1-3.1,2.1-5.5,4.3c-3.6,2.8-6,5.6-9.2,8c-3.1,2.5-6,4.7-9.1,7.3c-4.2,3.5-9.4,5.7-12.6,10.4
				C104.5,240.1,103.1,242.4,102.9,244.8z M213.4,225.3c1.2,0,2.3-0.3,3.3-0.9c5.2-2.8,7.3-7.8,9.7-12.7c1.6-3.3,2.1-7,3.8-10.3
				c0.3-0.6,0.6-1,1.3-0.8c0.7,0.1,0.6,0.8,0.6,1.3c0,0.7,0,1.4-0.1,2.2c-0.1,0.8,0.8,1.8,1.5,2.1c1.7,0.8,2.6,0.5,4-0.9
				c2.2-2.2,4.5-4.3,6.3-6.7c2.8-3.7,5.6-7.1,7.8-11.3c2.8-5.8,5-11.5,7.2-17.3c1.1-3,4.1-13.5,4.2-13.9c-0.1,0-4,10.4-5.3,13.9
				c-1.9,4.8-3.8,8.8-6.2,13.1c-1.3,2.6-3.1,5.7-4.5,7.9c-2.1,3-4.2,5.3-7,7.1c-1.9,0.8-3,0.6-4.3-0.1c-1.9-1.7-2.1-3-2-5.8
				c0.6-6.3,0.9-12.8-0.2-18.6c-0.1-1-1.4-1.7-2.7-1.5c-4.6,1.3-8,4.4-11.2,7.7c-1.9,1.9-3.3,4.3-4.9,6.5c-1.9,2.8-4.3,5.2-6.3,7.9
				c-1.5,2-3.3,3.3-3.8,6.3c0,0.3-0.3,1.3-0.5,2.2c0.1,0,1-1,1.1-1c1.2-1.2,2.3-2.4,3.4-3.7c2.1-2.4,3-5.2,5.3-8
				c0.6-0.5,1.3-1.4,1.9-0.8c0.7,0.6-0.3,1.4-0.7,1.8c-2.8,2.7-4.3,6.2-5.6,9.7c-2.4,6.5-3.2,13.1-1.7,19.9
				C208.3,223.8,210.4,225.5,213.4,225.3z M175.2,241.8c2.3-0.2,4.3-1.5,6-3.2c6-5.9,10.3-12.8,12.5-21c0-0.2,0.1-0.4,0.1-0.6
				c-0.2,0.1-0.3,0.2-0.5,0.3c-2.1,1.3-4.1,2.8-6.3,4c-4.1,2.3-8.4,4.2-11.6,8c-2.2,2.6-3.9,5.3-3.7,8.9
				C171.7,240.3,172.8,241.7,175.2,241.8z M109.8,244.6c-0.1,0.8,0.8,1.8,2.1,1.9c1.4,0.2,1.6-1,1.8-2.2c0.3-1.8-0.4-3.5-0.5-5.2
				c0-0.4-0.4-0.7-0.6-0.3C111,240.4,109.8,241.8,109.8,244.6z"/>
			<path d="M67.6,105.8c3.5-0.1,7.8-0.8,12.1-0.1c3.8,0.6,7.5,1.5,10.9,3.9c6.5,4.7,10.5,11,13,18.3c1.7,5.1,1.3,10.3,0.3,15.4
				c-1.3,6-4.5,11.2-8.5,15.7c-3.7,4.2-8,7.8-13.5,9.8c-3.9,1.4-7.8,3.2-12,3.1c-4-0.1-8.1,0.1-12.1-1.3c-4.7-1.7-9.1-3.5-12.9-6.8
				c-3.2-2.7-5.1-6.3-6.6-9.9c-2.3-5.7-3.4-11.8-3.7-17.9c-0.3-6.9,0.4-13.7,2-20.4c0.4-1.9,1-4,2.4-5.6c1-1.2,1.7-0.4,1.8,0.6
				c0.3,2.9,1.1,5.6,1.8,8.4c1.4,5.5,3.7,10.5,7.3,15c2.1,2.6,4.1,5.3,6.6,7.6c3.2,2.9,6.9,3.9,11.1,3.1c4.7-0.9,9.3-6.6,9.5-12.1
				c0.2-4.7-1.6-8.1-5.7-10.4c-2.2-1.2-4.4-1.9-7-2.1c-5.5-0.3-10.4-2.4-14.8-5.6c-4.9-3.5-7.7-11.7-5.7-17.7c1.8-5.4,4-10.5,8.7-14
				c2.5-1.8,5.2-3.3,8.2-4.2c3.2-1,6.2-1.5,9.5-0.9c3,0.6,7.1,4.9,8.1,7.8c1.1,3.2,2.3,6.3,3.4,9.4c0.7,2,0.3,2.8-2,3
				c-3.4,0.3-6.5,1.4-9.5,3c-1,0.5-2.2,1.3-3,0.6c-0.9-0.8-0.4-2.3-0.2-3.5c0.4-2.4-1.1-5.7-3.3-6.6c-3-1.3-6.7-0.8-8.3,1.2
				c-2.3,3-1.8,8,1.2,10.9c2.2,2.1,5.1,2.1,7.9,2.3C65.3,105.8,66.1,105.8,67.6,105.8z M38,142.4c0,2,0.8,3.9,1.3,5.6
				c1.5,5,3.7,8.9,7.3,12.9c2.6,2.1,5,4.5,8.2,5.7c4.9,1.9,9.9,2.9,15.2,2.5c4-0.3,7.8-0.8,11.2-2.9c0.8-0.5,1.8-0.6,2.4-1.2
				c3.8-3.2,8-5.8,11.2-9.7c4-4.8,6.8-10,6.9-16.3c0.2-5.8-0.9-11.5-3.2-16.9c-0.8-2-1.7-3.5-3.4-5.5c-3.4-3-7.2-5.4-11.4-7.4
				c-4-1.8-8-1.7-11.9-1.2c-3.8,0.4-7.5,0.9-11.3-0.3c-4.3-1.3-7.5-3.7-8.6-8.2c-0.8-3.3,1.8-9.1,4.7-10.9c2.3-1.5,6.6-1.7,8.1-0.3
				c2.5,2.4,4.2,5.4,4.6,8.9c0.2,1.5,0.9,1.5,2,1.1c2.4-0.9,4.7-1.8,7.3-2.2c0.8-0.1,1.2-0.5,0.9-1.5c-1.6-4.8-3.2-9.5-7.8-12.6
				c-3.5-2.4-7.1-2.9-10.6-1.7c-7,2.5-11.6,8.1-14.4,14.6c-3.1,5.8-0.9,12.8,3.7,17.4c4.1,4.1,9.3,5.1,14.5,6.1
				c2.8,0.6,5.6,0.9,8.2,2c1.7,0.8,3.6,1.5,4.7,3.4c2.2,3.6,2.5,7.3,2.1,11.4c-0.4,5.2-3.4,8.6-7,11.2c-5.2,3.8-10.8,2.9-16.2-0.4
				c-2.3-1.4-4.2-2.5-5.9-4.7c-2.6-2.4-4.9-5.7-6.9-8.7c-2.5-3.7-3.3-8.1-4.8-12.2c-0.1-0.3,0.1-0.7-0.4-0.7c-0.2,0-0.4,0.3-0.4,0.5
				c-0.4,2.3-0.9,4.6-0.9,6.9C37.5,132.3,37.3,137.4,38,142.4z"/>
			<path d="M170.6,48.1c-0.3-6.2-1.3-12.2-4.4-17.6c-0.7-1.3,0.3-1.6,1.1-1.7c4.7-0.3,9.4,0,14,0.7c1.3,0.2,2.4,0.7,3.8,0.4
				c0.3-0.1,0.9,0.2,1,0.4c0.2,0.4-0.1,0.8-0.4,1.1c-3.3,3.7-5.2,8-5.3,13c-0.1,4.6-0.5,9.2-0.3,13.8c0.3,6,1.7,11.6,4,17.1
				c1.7,4.2,4.7,7.3,8.2,9.8c2.5,1.8,5.8,2.6,9.1,1.6c1-0.3,2.1-0.6,2.7,0.4c0.6,1-0.5,1.5-1,2.2c-2.9,3.6-8.4,3.4-12.6,1.6
				c-5.2-2.2-8.2-6.2-10.4-11.1c-2-4.4-3.8-8.9-7.1-12.5c-0.3-0.4-1.5-1.8-2.1-2.5c0.2,0.6,0.9,2.6,1,3c1.1,4.4,1.9,8.8,3.4,13
				c0.7,2.1,1.9,3.9,3,5.8c0.3,0.5,0.4,0.9,0.2,1.3c-0.2,0.4-0.6,0.5-0.9,0.4c-5-1.3-7.9,2-10.9,5c-0.3,0.3-0.5,0.6-1,0.4
				c-0.5-0.2-0.8-0.4-0.8-1c-0.7-4.9-0.5-9.9-1.7-14.6c-1.3-5-2.4-10-4.7-14.6c-2.1-4.3-4.6-8.3-7.8-11.8
				c-4.2-4.6-9.2-8.4-14.9-11.1c-3.1-1.5-6.2-1-9.3-1.5c-0.4-0.1-1.1,0.2-1.1-0.4c0-0.6,0.6-0.9,1.1-1.1c2-0.9,4.1-1.3,6.2-1.1
				c2.9,0.2,5.7-0.5,8.6,0c3.6,0.6,7.2,1.5,10.4,3.3c3.6,2,7.4,3.5,11.2,5.2c2.1,0.9,4,2.3,5.7,3.8c0.5,0.5,1.5,1.9,2.1,2.3
				C170.8,50.1,170.6,48.8,170.6,48.1z M172.4,53.5c-0.1,0.5,0.3,1.5-0.4,1.6c-0.5,0.1-1-0.7-1.4-1.3c-2.8-3.9-6.5-6.8-11-8.6
				c-3.8-1.6-7.6-3.3-11.4-4.8c-2.9-1.1-5.9-1.6-8.9-1.8c-0.2,0-2.8,0-3.1,0.1c0.1,0.1,2.4,0.9,2.6,1c0.6,0.3,1.1,0.5,1.7,0.9
				c4.3,3.2,8.6,6.2,12.4,10c5.3,5.3,9,11.5,10.6,18.7c1.5,6.4,2.2,13,3.2,19.6c0.1,0.4-0.1,0.8,0.4,1c0.4,0.2,0.7,0,1-0.3
				c1.5-1.4,3.1-2.6,5.2-3c1.3-0.3,1.5-0.9,1.2-2.1c-0.9-3.1-1.8-6.2-2.5-9.4c-1.3-5.6-2.6-11.1-6.5-15.6c-0.3-0.4-1.1-0.8-0.5-1.4
				c0.5-0.5,1,0,1.5,0.2c6.5,2.9,9.5,9,12.8,14.7c2.7,7.3,6.8,10.8,6.9,10.9c-4.1-6.9-5.5-11.3-5.6-11.5c-0.4-1.1-0.7-2.3-1-3.5
				c-1-4.7-0.9-9.5-0.8-14.3c0.1-4.5,0.1-9,0.7-13.4c0.4-2.9,1.1-5.6,2.6-8.1c0.2-0.3,0.6-1.1-0.2-1.1c-0.9,0-1.7-0.5-2.5-0.6
				c-3-0.3-6,0.1-9-0.4c-0.6-0.1-0.8,0-0.7,0.8c0.1,0.8,0.6,1.4,0.8,2.2C172,40.5,172.5,47,172.4,53.5z"/>
			<path d="M89.7,80c0-2.7-0.2-4.5-0.3-7.2c0-1.3-0.8-1-1.5-0.5c-3.4,2-5.7,5.1-7.9,8.3c-0.9,1.3-1.2,0.7-1.9-0.2
				c-2.6-3.3-4.8-7.2-8.7-9.1c-2.3-1.1-2.5-1.8-0.9-3.8c3.6-4.5,8.3-7.6,12.7-11.1c3-2.4,6.6-4.1,10-6c3.4-1.9,7.1-3.1,10.6-4.9
				c4.5-2.3,9.5-3.1,14.1-4.8c1.4-0.5,3-0.4,4.5-0.6c0.8-0.1,1.2,0.3,1,1.1c-0.6,2.7-0.6,5.4-0.2,8c0.3,2.1-1.2,2.6-2.6,3.1
				c-5.9,2-11.1,5.2-15.8,9.2c-0.5,0.4-0.9,0.8-0.9,1.5c0.2,4.5,0.1,9,0.8,13.4c0.8,5.1,2.5,10.1,3.7,15.2c1.1,4.6,2.6,9,4.7,13.2
				c1.1,2.2,3.2,3.5,4.5,5.5c0.4,0.7,0.5,1.1,0.1,1.8c-2.3,3.9-4.4,7.9-5,12.5c-0.1,1.2-0.7,2.2-1.1,3.4c-0.3,0.8-0.7,0.5-1.3,0.4
				c-2.6-0.8-3.3-3.2-4.4-5.2c-1.7-3-3.2-6.1-4.7-9.2c-1.4-2.9-2.6-5.9-3.8-8.9c-1.1-2.7-1.8-5.5-2.6-8.2c-1.3-4.2-1.9-8.6-2.8-13
				c-0.2-0.8-0.2-1.7-0.4-2.5C89.7,80.8,89.7,80.2,89.7,80z M119,43.2c0.1-0.9-0.2-1.1-1.1-0.9c-4.4,1-8.8,2-12.8,3.9
				c-3.3,1.6-6.9,2.5-10.2,4.2c-2.7,1.4-4.9,3.3-7.5,4.8c-5.9,3.4-11.6,7-16.2,12.3c-0.7,0.8-1.6,1.8,0,2.7c1.9,1,3.4,2.4,4.6,4.3
				c0.4,0.7,1,1.4,1.6,2c0.4,0.5,0.9,1.7,2,0.5c0.5-0.5,1-1.4,1.7-2c2.8-2.7,5.5-4.9,9-6.5c0.9-0.4,1.1,0,1.1,0.8
				c0.1,1.6,0.2,3.2,0.2,4.8c-0.1,7.4,1.8,14.4,3.9,21.3c2.1,6.8,5,13.4,7.8,20c1,2.4,2.3,4.7,3.4,7.1c0.2,0.5,0.5,0.9,1.1,1
				c0.2,0,0.6-0.2,0.6-0.4c1-3.7,3-7,4.5-10.5c0.2-0.6,0.1-1-0.2-1.4c-1.3-1.6-2.6-3.2-3.7-4.9c-2.9-4.6-4.6-9.7-5.8-15
				c-1.1-4.7-1.5-9.5-2.1-14.3c-0.6-4-0.1-8-1-11.9c-0.4-1.6-1.1-3.2,1.1-4.5c2.4-1.4,4.2-3.7,6.7-5.1c3.2-1.9,6.7-3.2,10-4.9
				c0.6-0.3,1-0.7,1.1-1.4C118.7,47,118.8,45.1,119,43.2z"/>
			<path d="M122.2,87.1c1.8,4.8,3.9,9.1,6.5,13.2c1,1.5,0.6,2.5-1.2,2.9c-3.4,0.6-6.3,2.5-9.4,3.7c-0.8,0.3-0.9,0-1.3-0.6
				c-3.1-5.4-5.2-11.2-6.8-17.2c-0.9-3.2-1.7-6.5-2.1-10c-0.3-3.4-0.3-6-0.6-9c-0.3-2.9-0.4-5.7-0.4-8.6c0-2.1,2.1-2.5,3.6-3.2
				c1.1-0.6,2.3-0.8,3.5-1.2c0.7-0.2,1,0.1,1.1,0.8c0.1,1.3,0.3,2.5,0.5,3.8c0.1,0.3,0.3,1.6,0.4,1.9c0.2-0.2,0.5-1.4,0.6-1.7
				c0.8-2.1,1.8-4.2,3.5-5.6c3.1-2.4,5.9-5.6,10.4-4.6c4.2,0.9,6,3.3,6.1,8.1c0.1,4-1.5,7.6-3,11.2c-1,2.2-2,4.4-3.8,6
				c-0.5,0.4-0.9,1-1.5,1.2c-2.1,0.8-0.8,1.6,0.3,2.5c2.7,2.4,5.7,4.4,8.9,6.2c2.1,1.2,4.8,3,6.9,4.2c4.2,2.3,7.7,3.5,12.3,4.9
				c4.6,1.5,8.7,0.5,13.3-0.9c1-0.3,1.5,0.9,1.3,1.7c-0.4,1.5-1.5,2.6-2.2,3.9c-2.2,3.9-4.3,7.6-6.5,11.5c-0.6,1-1.4,1.8-1.8,2.9
				c-0.6,1.7-1.8,1.4-2.6,0.4c-2.7-3.3-6.3-5.6-9.7-8c-3.6-2.6-7.5-4.7-11.3-7c-3.3-2-6.3-4.4-9.2-6.9
				C125.8,91.7,124.4,89.3,122.2,87.1z M162.3,98.9c-1.4,0.2-2.8-0.1-4.2-0.3c-3.4-0.5-6.7-1.7-9.9-3c-5.6-2.3-10-6.3-15.3-9.3
				c-3.2-1.8-5.7-4.7-8.7-7c-0.6-0.3-1.4-1.1,0.1-1.9c3.3-1.9,5.5-4.8,7.5-8.1c1.7-2.9,1.8-6.1,2.2-9.3c0.4-4.1-2.2-6.6-6.2-6.3
				c-1.8,0.1-3,1.2-4.2,2.3c-3.5,3-5.4,6.9-6.1,11.5c-0.1,0.6-0.4,1.3-1.2,1.4c-0.7,0.1-1.3-0.3-1.5-1.1c-0.6-1.9-1.3-3.8-1.9-5.7
				c-0.1-0.4-0.3-1.2-0.9-0.8c-1.4,0.8-3.1,1.3-2.8,3.6c0.4,3.1,0.7,6.2,0.7,9.3c0,4.5,0.8,8.8,1.7,13.2c1.2,5.9,3.4,11.3,6.1,16.6
				c0.5,0.9,0.8,1,1.6,0.7c2.1-0.9,4-1.8,6.1-2.5c1.1-0.4,0.9-0.6,0.4-1.4c-2.8-5.1-4.9-10.6-5.9-16.4c-0.2-1.1,0.3-1.1,1.1-0.9
				c0.7,0.2,1,0.7,1.4,1.2c1.8,2.4,3.9,4.8,6,6.7c3.6,3.3,7.4,6.5,11.8,8.8c5,2.7,9.3,5.9,13.9,9.3c1.5,1.2,2.7,1.9,4,3.5
				c0.4,0.4,1,1.2,1.5,0.3c0.8-2.2,1.7-3.9,2.8-5.8c1.8-3.3,3.6-6.5,6.2-9.3c0.1-0.2,0.2-0.4,0.3-0.6c-0.2,0-2.1,0.7-2.3,0.7
				C164.6,98.7,164.8,98.6,162.3,98.9z"/>
			<path d="M202.5,84c-3.5,0-6.8-2.2-10.1-4.5c-3.5-2.4-6.1-5.7-8.3-9.3c-1.5-2.5-1.8-5.3-2.1-8.1c-0.7-5.1,0.2-10.1,1.4-15.1
				c0.9-3.6,3-6.7,5.8-9.2c2.7-2.5,5.8-4.3,9.3-4.1c6.8,0.4,12.8,3,17,8.7c0.5,0.7,0.4,0.9-0.4,1.3c-2.4,1-4.7,2.2-7,3.2
				c-1.2,0.5-2.3,0.7-3.3-0.7c-2-3.1-6.5-2.8-9.1,0.7c-3.2,4.3-4.8,9-3.2,14.4c1.2,3.9,4.1,6.3,7.8,7.6c3.4,1.2,9.3-1.5,11.1-4.8
				c0.9-1.5,2.3-2.8,2.2-4.9c-0.1-0.9-0.5-1.1-1.1-0.9c-0.9,0.3-2,0.5-2.7,1.2c-1.6,1.5-2.3,0.9-3-0.8c-0.8-2-1.7-4.1-1.8-6.2
				c-0.1-2.5,2.3-1.9,3.5-2.1c4.8-1.1,9.7-1.9,14.3-3.5c3.2-1.1,5,1.2,5,4.2c0,0.3,0,0.6,0,0.9c0,1.8,0.9,4.1-2.4,4
				c-1.4,0-2.1,0.9-2.1,2.7c0.2,6.3-1.3,12.4-5.2,17.3C214.3,80.2,209.6,83.8,202.5,84z M201.8,81.2c5.8-0.4,10.4-2.5,12.6-5.5
				c4.3-5.9,7.9-12,6.9-19.6c-0.1-1,0.4-1.9,1.6-1.9c1.6,0,3.2,0.1,3-2.2c-0.1-1.3-0.7-2.5-0.9-3.7c-0.1-0.5-1.2-0.2-1.5-0.1
				c-1.8,0.4-2.7,0.8-4.5,1.2c-3.6,0.8-7.2,1.9-10.8,2.4c-0.7,0.2-1.5,0.4-1.1,1.3c0.5,1.2,1.1,2.5,1.6,3.7c0.3,0.8,0.7,0.8,1.5,0.4
				c1.4-0.7,2.9-1.2,4.4-1.6c1-0.3,1.8,0.3,1.5,1.6c-0.6,2.8-1.2,5.6-3.1,7.9c-2.5,3-5.4,5.2-9.4,5.7c-2.8,0.4-5.1-0.5-7.3-2
				c-3.8-2.7-6.1-6.7-6.3-11.3c-0.1-4,1.4-7.4,3.5-10.8c3.2-5,7.4-6.4,12.4-2.3c0.6,0.4,1.2,0.4,1.8,0.2c1.3-0.5,2.3-1.3,3.6-1.8
				c1-0.4,1.2-0.7,0.6-1.3c-1.4-1.2-3.3-2.1-4.8-3.3c-2.9-2.3-5.9-2.3-9.3-2.1c-2.9,0.2-5.2,1.2-7.3,3.4c-3.6,3.9-5.3,8.5-6.1,13.7
				c-0.7,4.7-0.8,9.3,0.7,13.8c1.1,3.3,3.2,5.8,5.5,8.4C193.9,79.2,197.8,80.8,201.8,81.2z"/>
			<path d="M135.8,74.9c0.6-3.8,0.3-7.6,2-11c2.5-5,10.8-7.7,15.8-3c2.8,2.7,4.6,5.8,5.5,9.6c0.9,3.9,0.7,7.6-0.8,11.4
				c-1.6,4-4.5,5.9-8.7,6.5c-5.6,0.8-11-3.2-12.9-7.9C136,78.8,136,76.7,135.8,74.9z M156.9,76c0.3-6.7-2.4-10.3-5.8-13.6
				c-3.9-3.8-8.9-0.8-10.5,2.2c-2.1,3.9-2.2,8-1.4,12.2c0.4,2.2,0.4,4.6,2.1,6.4c3.5,3.6,8.8,2.6,11.8,0.6
				C156.4,81.8,156.7,78,156.9,76z"/>
			<path d="M47.7,183.2c-2.7,0.3-4.8-1.2-5.5-3.1c-0.9-2.4-1.2-5.5,2.6-6.5c3.2-0.8,6.9-0.3,8,1.6c1.2,2.1,1,4-0.1,6
				C51.7,183.1,49.7,183.1,47.7,183.2z M47.1,175.3c-1.7,0-2.5,0.7-2.9,1.3c-0.4,1.5-0.3,4.5,4,4.4c1.9-0.1,2.3-0.9,2.3-2.5
				C50.5,176.5,49.2,175.3,47.1,175.3z"/>
			<path d="M243.1,64.2c0,4.1-2.8,7.1-6.6,7.1c-3.1,0-6.7-3.9-6.4-7.4c0.3-3.2,2.5-7.2,7.3-6.9C240.7,57.2,243.1,60.1,243.1,64.2z
				 M231.9,64.6c-0.6,2.5,2.3,4.9,4.4,4.8c2.7-0.2,5.5-2.8,5.3-5.6c-0.2-3-0.8-5.4-4.2-5.3C234.2,58.7,231.9,61.1,231.9,64.6z"/>
			<path d="M249.2,78.9c-2.7,0-5.1-1.6-5.2-3.4c0-2.6,2.6-5.6,4.9-5.6c2.1,0,4.8,2.7,4.8,4.7C253.7,77,251.6,78.9,249.2,78.9z
				 M248.9,77.4c1.4-0.2,3-0.8,3-2.6c0-1.7-0.8-2.9-2.7-2.9c-2,0-3.5,1.4-3.5,3.2C245.7,77.7,248.1,77.5,248.9,77.4z"/>
			<path d="M254.4,89.7c-1.1,0-2.4-0.9-2.5-2.9c-0.1-1.9,2.6-4.5,4.6-4c1.4,0.3,3.2,1,3.3,2.9C260,87.9,257.8,89.7,254.4,89.7z
				 M255.5,88c1.4-0.2,2.3-0.9,2.4-2.3c0.1-1-0.9-1.3-1.6-1.2c-1.2,0-2.5,0.3-2.5,1.9C253.7,87.5,254.5,88.1,255.5,88z"/>
			<path d="M265.3,98.9c-0.2,2.5-1.7,3.2-3.6,3.8c-1.6,0.5-3.2,0.2-4-1.2c-0.3-0.8-0.3-2.1,0.1-2.8c0.6-1.1,1.4-2.1,2.9-2.5
				c1.3-0.2,3.6-0.5,4.4,1.7C265.3,98.2,265.3,98.5,265.3,98.9z M261.1,101.1c1.2-0.2,2.5-0.5,2.7-1.9c0.2-1-0.6-1.4-1.7-1.4
				c-1.5,0-2.5,0.7-2.7,2.1C259.3,101.3,260.6,101.1,261.1,101.1z"/>
			<path d="M265.7,109.2c0,2.5-1.3,4.2-3,4.2c-1.5,0-1.9-0.9-1.9-2.3c0-2.1,1.8-4.3,3.5-4.2C266,107,265.7,108.5,265.7,109.2z
				 M262.9,111.7c1.3-0.1,1.7-1,1.9-2.1c0.2-1-0.6-1.2-1.1-1.2c-0.9,0-1.9,0.8-1.9,2.5C261.9,111.6,262.4,111.7,262.9,111.7z"/>
			<path d="M130.4,140.3c-1.5,0.1-2.9,0.1-4.2,0.3c-0.8,0.1-1.2-0.3-1.3-1c-0.6-6,0.5-11.5,4.5-16.2c0.5-0.6,1-1.3,1.5-2
				c0.5-0.6,1.2-1.3,1.8-0.9c0.7,0.4,0.6,1.4,0.4,2.2c-0.7,2.2-0.7,4.5-1.1,6.7c-0.6,3,0,5.8,0.6,8.6
				C132.9,140.1,132,140.2,130.4,140.3z M130.4,125.2c0.1-0.5,0.1-0.6,0.4-1.4c-0.5,0.6-0.8,1.3-0.9,1.5c-1.4,3.8-2.8,7.6-2.5,11.9
				c0.1,0.6-0.1,1.4,0.8,1.2c0.8-0.2,2.3,0.3,2-1.4C129.5,133.1,129.8,129.2,130.4,125.2z"/>
			<path d="M176.2,205c0.1-3.8,1.9-6.7,4.7-9.5c3-3.2,5.8-5.4,9.7-6.8c3-1.1,5.9-1.9,9.2-0.9c1.4,0.4,1.9,1.5,1.9,2.7
				c-0.2,4.2-1.3,8.1-3,11.9c-2.3,5.3-6.8,8-11.5,10.6c-4.3,2.4-9.4,0-10.7-5.2C176.2,206.9,176.1,206.1,176.2,205z M178.6,204
				c-0.2,2.8,0.3,4.4,0.9,5.2c1.7,2.4,4.3,3,7.4,1.7c4.3-1.8,7.7-4.5,9.8-8.8c1.8-3.8,2.4-7.9,3.2-12c0.1-0.3-0.1-0.5-0.4-0.6
				c-3.1-0.8-6.1,0-8.9,1.3c-2.1,1.1-3.8,2.3-5.8,3.9C181.4,197.6,179,200.7,178.6,204z"/>
			<path d="M157.1,224.1c-0.3,5.8-1.7,12.2-7,16.8c-2.8,2.4-10.1,3.8-14.1,0.3c-5.4-4.7-5.5-10.4-4.6-16.5c0.4-2.7,1.9-4.6,3.7-6.4
				c2.7-2.5,5.4-5.1,8.1-7.6c3-2.5,8.4-2,10.8,1.9C156.1,215.8,157,219.4,157.1,224.1z M154.5,221.7c-0.2-2-0.8-5.4-2.8-8.4
				c-0.8-1.2-1.6-2.4-3.8-2.2c-2.7,0.2-4.6,1.6-6.4,3.3c-3.7,3.5-7.8,6.6-8.3,12.4c-0.4,4.5,0.3,8.4,3.1,11.9
				c1.9,2.4,8.6,2.6,11.2,0.6C152.5,235.2,154.8,229.7,154.5,221.7z"/>
			<path d="M212.7,205.3c0-3.6,1.8-7.4,3.5-11.3c2.1-4.7,4.9-9.1,8.4-12.9c1.6-1.8,3.1-3.9,5.4-5.1c1.7-0.9,2.6,0,2.8,1.5
				c0.9,6.9,0.2,13.5-2.4,20c-1.4,3.7-3.1,7.2-5.4,10.3c-2,2.7-4.6,4.9-8.2,5.2c-1.2,0.1-2.2-0.6-2.6-1.4
				C213.3,210.1,212.7,208.1,212.7,205.3z M231.6,181.7c-0.2-1.1,0-2.5-1.1-3.1c-0.4-0.2-1.6,0.5-2.2,1c-3.4,3.5-6.1,7.6-8.6,11.7
				c-2.8,4.5-4.8,9.5-5,14.9c-0.1,1.5,0.2,3.2,1.6,4.3c1.4,0.5,2.4,0.4,3.6-0.5c2.8-2.2,4.7-4.8,6.2-7.8
				C229.2,195.7,231.4,189,231.6,181.7z"/>
			<path d="M125.7,62.8c2.1,0,3.5,1.3,3.5,3.4c0,2.4-1.9,4.6-3.9,4.6c-2.1-0.1-3.9-2.2-3.9-4.6C121.5,63.8,122.7,62.8,125.7,62.8z
				 M123.5,66.2c0,1.3-0.1,2.6,1.7,2.6c1.7,0,1.6-1.2,1.7-2.3c0.1-1.4-1-2-2.1-2.1C123.7,64.3,123.4,65.2,123.5,66.2z"/>
			<path d="M151.5,71.7c-0.3,1.7-1,3-2.9,3c-3,0-5.2-1.5-5-3.4c0.1-2.4,1.8-4.4,3.6-4.3C149.2,67,151.6,69.6,151.5,71.7z
				 M147.3,72.9c0.7-0.2,1.8-0.6,1.9-1.6c0-1.2-1-1.9-2.2-2.1c-1-0.1-1.1,0.8-1.2,1.5C145.7,71.7,145.8,72.7,147.3,72.9z"/>
		</g>
	</g>
</g>
<path class="st1" d="M184.7,81.8c1.7,2.7,4.3,5.4,11.3,7.8c0,0-8.1-1.9-11.7-7.7L184.7,81.8z"/>
</svg>
