<?xml version="1.0" encoding="utf-8"?>
<!-- Generator: Adobe Illustrator 22.1.0, SVG Export Plug-In . SVG Version: 6.00 Build 0)  -->
<svg version="1.1" id="Layer_1" xmlns="http://www.w3.org/2000/svg" xmlns:xlink="http://www.w3.org/1999/xlink" x="0px" y="0px"
	 viewBox="0 0 216 216" style="enable-background:new 0 0 216 216;" xml:space="preserve">
<style type="text/css">
	.st0{fill:#2D111C;}
	.st1{fill:none;}
</style>
<g>
	<g>
		<path class="st0" d="M154.1,126.1c-2.3-0.3-4.1-0.6-5.9-2c-0.5-0.4-0.6,0.1-0.7,0.3c-1.3,2.1-2.9,3.8-4.6,5.5c-3.2,3-7,4.6-11.3,5
			c-1,0.1-2.1,0.1-3.1,0.4c-0.8,0.2-1,1.1-1.5,1.7c-1.5,1.9-3.2,3.7-5.1,5.4c-1.9,1.7-4.1,2.9-6.3,4.1c-1.9,1-4.1,1.8-6.3,1.9
			c-2.3,0.3-4.3,0.5-6.7,0.2c-3.8-0.3-6.4-1.7-8.3-4.6c-1.8-2.8-3.7-5.6-4.3-9c-0.4-2.3-0.6-4.7-0.9-7c-0.1-0.6-0.1-1.1-0.3-1.8
			c-0.1-0.4-0.1-0.6-0.2-0.9c-0.1,0.1-0.4,1.1-0.4,1.2c-1.2,3.2-2.5,6.2-4.5,9c-2.2,3-4.7,5.6-8.1,7.1c-3,1.3-6.1,2.1-9.2,2.5
			c-3.3,0.2-5.8,0.1-8.6-0.5c-3.8-0.9-7.6-2.2-10-5.5c-0.9-1.2-1.8-2.2-2.6-3.5c-0.2-0.4-0.8-0.7-0.3-1.3c0.6-0.6,1.2-0.3,1.7,0
			c3,2.3,6.4,2.3,9.9,2.2c4.3-0.1,7.8-1.9,11.2-4.4c3.2-2.3,5.1-5.4,6.9-8.7c1.9-3.3,3.6-6.6,4.9-10.2c0.8-2.3,1.4-4.8,1.6-7.3
			c0.6-5.1,2.4-9.7,6.3-13.3c1.7-1.6,3.3-3.1,5.5-4c1.7-0.7,3.4-0.7,5.2-0.6c1.6,0.2,2,1.2,1.4,3.2c-1.2,4.2-0.9,8.5-0.1,12.8
			c0.7,4.1,1.8,8.2,3.2,12.1c2,5.4,5.2,9.9,10.3,12.7c1.3,0.7,2.7,1.2,4.3,1c0.7-0.1,1-0.2,0.7-0.9c-0.8-1.9-1.8-3.7-2.3-5.7
			c-1.3-5.2-1.2-10.6,5.1-13.2c2-0.8,4.4-0.6,6.4,0.3c1.3,0.6,2.6,1.4,3.4,2.5c1.7,2.2,2.7,4.7,3,7.5c0.2,2.2-0.6,4.4-1.4,6.6
			c-0.6,1.8-1,3.7-2.2,5.3c-0.3,0.4-0.1,0.7,0.4,0.7c4.9,0.1,9.3-1.2,12.8-4.8c2.9-3,4.8-6.6,5.8-10.7c1.2-4.7-0.7-10.4-4.8-12.9
			c-2-1.2-4.3-1.6-6.5-2.2c-4-1-8.3-0.8-11.8-3.6c-3.2-2.5-4.1-6.9-1.7-10.2c0.5-0.7,0.8-1.3,1.6-2c0.2-0.2,0.4-0.5,0.7-0.3
			c0.3,0.2,0.4,0.5,0.4,0.9c0,1.2-0.1,2.5,0.7,3.6c1.4,1.8,4.2,1.4,5.8,0.7c0.4-0.2,0.9-0.4,1.3-0.7c1.9-1.5,2.5-5.4,1-7.5
			c-0.4-0.5-0.6-0.9-1.2-1.5c-1.3-1.2-4.3-1.8-6-1.3c-4,1.1-6.7,3.8-8.9,7.2c-2.2,3.5-1.7,7.1,0.3,10.6c1.3,2.2,2.8,4.3,5.3,5.2
			c2.6,0.9,5.3,1.4,7.9,2c2.8,0.7,5.8,1.1,7.9,3.3c1.8,2,1.4,4.5,0.5,7.2c-0.9,2.5-2.6,4.2-4.4,6c-0.5,0.5-1.1,0.9-1.8,0.9
			c-0.4,0-1.1,0.5-1.3-0.3c-0.1-0.6-0.3-1.2,0.7-1.6c3.1-0.9,6.3-5.8,5.4-9c-0.5-2-2.4-4.1-6-4.9c-4.2-0.9-8.6-1.1-12.4-4
			c-1.9-1.2-3-3.2-3.9-5.2c-1.9-4.3-1.5-8.6,1-12.5c2.8-4.3,8.9-7,13.8-5.8c1.8,0.4,2.7,1.4,3.8,2.6c1.5,1.7,1.8,4.5,1.4,6.7
			c-0.4,2.4-3.7,4.7-6.4,4.7c-2.7,0-4.7-0.9-5.7-3.6c-0.2-0.6-0.4-0.1-0.5,0.1c-2.1,3.3-0.4,7.3,3.8,8.6c3.2,1,6.5,1.5,9.8,2.1
			c5.1,1,9.4,3,11.7,8.1c0.1,0.3,0.3,0.5,0.7,0.5c3.2,0.1,6.3-0.1,9.1-1.9c2.3-1.5,3.9-5.3,3.6-8c-0.2-1.3-0.6-2.2-1.3-3.2
			c-1.3-2.2-3.2-2.4-5.4-2.7c-2.6-0.4-5.4-0.3-8-0.9c-3.5-0.9-6.1-4.2-6.5-8.1c-0.2-2-0.2-3.8,0.4-5.9c1.7-5,4.9-7.5,9.5-9
			c4.1-1.3,7.7-0.5,10.6,2.9c2.7,3.1,2.8,4.8,1.4,7.5c-1.1,2.1-4,3.3-6.4,3.1c-2.6-0.2-3.9-1.7-4.6-4c-0.2-0.6-0.6-0.4-0.9-0.1
			c-2,1.7-1.3,5.9,1.1,7.1c3,1.5,5.9,0.9,8.9,0.4c5.2-0.9,9.9,0.1,13.9,3.9c2.1,2,3.8,4.3,4.7,7.2c0.3,0.9,0.4,1.9,0.5,3
			c0.2,1.7,0.2,3.1,0.1,4.8c-0.1,2-0.7,4.5-1.8,6.2c-1.7,2.9-3.7,4.9-6.1,7.1c-1.6,1.5-3.3,2.8-5.2,3.9c-2.5,1.5-5.3,2.4-8.1,3
			C158.4,125.9,156.3,126.2,154.1,126.1z M131.7,121.5c0.3-5.1-2.3-9.3-6-10.3c-2.2-0.6-3.5-0.9-5.6,0.3c-3,1.7-3.8,4.6-4.1,7.6
			c-0.3,3.4,1.1,6.4,2.7,9.2c0.4,0.7,0.8,1.8,1.9,1.8c3.2-0.2,5.2-2.2,6.7-4.8c0.7-1.2,0.4-1.4-0.8-1.7c-3-0.8-5.7-2.3-6.4-5.8
			c-0.6-3.1,1.6-5.7,4.4-4.8c2.4,0.8,4.1,2.5,5,4.9c0.7,2,0.4,3.9-0.2,5.9c-0.8,2.6-2.2,4.6-4.4,6.1c-1.9,1.3-4.1,1.8-6.5,1.8
			c-1.4,0-2.7,0.2-4.1-0.2c-2.1-0.7-3.8-1.8-5.5-3.2c-2.6-2.2-4.7-4.6-6.1-7.7c-0.8-1.6-1.8-3.2-2.2-4.9c-0.6-2.2-1.7-4.3-2.1-6.6
			c-0.4-2.2-1.3-4.4-1.5-6.7c-0.3-3.9-0.8-7.9,1.1-11.7c0.3-0.6,0.2-1.3-0.6-1.4c-0.9-0.1-2-0.2-2.8,0.1c-1.9,0.7-3.7,1.7-5.3,3.2
			c-1.5,1.3-2.7,3-3.9,4.5c-2.4,2.8-2.5,6.4-3.2,9.8c-0.4,2-0.4,4.1-1.2,6.1c-1.3,3.3-2.5,6.6-4.1,9.8c-1.7,3.4-4.1,6.4-6.6,9.2
			c-2.5,2.8-5.7,4.4-9.2,5.5c-2.2,0.7-3.7,0.7-6,0.7c-0.6,0-2.2,0-2.8-0.1c-1.5-0.3-2-0.2-4.3-1.4c-0.1,0-1.9-1.3-2-1.2
			c0,0.1,1.1,1.4,1.2,1.5c1,1.3,2.3,2.4,3.4,3.2c5.3,3.6,10.8,4.4,17.2,3.4c5-0.7,9.3-2.8,12.7-6.6c2.6-3,4.3-6.5,6-10.1
			c1.4-2.9,1.7-6.1,2.3-9.2c0-0.2-0.1-0.6,0.3-0.6c0.4,0,0.5,0.3,0.6,0.6c0.3,0.9,0,1.8,0,2.7c0,4.1,0.8,8.1,1.3,12.2
			c0.3,2.1,0.8,4.1,1.7,6c0.6,1.3,1.3,2.5,2.1,3.6c1.3,1.9,3,3.3,5.2,4.3c3.5,1.1,6.7,0.6,10,0.3c2.2-0.5,3.3-1,5.4-2
			c3.4-1.8,6.2-4,8.5-6.9c1.7-2.1,3.2-4.5,4.6-6.8C130.4,127.8,131.4,124.5,131.7,121.5z M152.7,90.9c2.5,0.2,4.2,0,7.2,0.9
			c1.6,0.5,3.1,1,4.2,3.9c1.6,3.8,1.5,7.1-0.8,10.4c-2.7,3.9-6.6,5.3-11.1,4.9c-1.4-0.1-2.1-0.4-1.7,1.4c0,0.2,0.1,0.5,0.1,0.7
			c0,2.9-0.2,5.8-1.6,8.4c-0.6,1.2,0.1,1.4,1.3,2c1.7,0.8,3.2,0.9,5,0.8c3.2-0.2,5.6-0.8,8.2-1.8c5.8-2.2,10.8-5.2,13.9-10.8
			c2.5-4.4,2.9-9.2,1.8-14.1c-0.9-4-3.7-6.5-7.1-8.2c-4-2-8.4-1.7-12.7-1.3c-2.7,0.3-5.3,0-7.5-1.5c-1.8-1.3-2.3-3.4-1.9-5.4
			c0.5-2.6,1.7-4.7,4.4-5.7c0.3-0.1,0.6-0.1,0.8,0.2c0.2,0.2,0.1,0.5,0,0.8c-0.8,1.6-0.5,3.6,0.5,4.5c1.3,1.1,4.1,1.1,5.5,0.1
			c2.9-2.2,3.1-5.6,0.3-8.4c-2.5-2.6-7.7-3.2-11.2-0.9c-4.1,2.7-6.8,6.3-6.5,11.4c0.1,1.6,0.4,3.3,1.2,4.7
			C147.1,89.8,149.2,90.8,152.7,90.9z M124.4,114.5c-2.2,0-3,0.8-3,2.5c0,2.6,2.9,5.1,6.1,5.3c0.8,0,1-0.4,1.1-1
			c0.1-1,0-1.9-0.4-2.8C127.2,116.6,126.2,114.9,124.4,114.5z"/>
		<path class="st0" d="M142.2,158.7c0-1.7,0.2-3.3,0.7-4.8c0.1-0.4,0.2-0.5,0.5-1.2c0-0.1,0.3-0.7,0.3-0.8c-0.1,0-0.6,0.4-0.7,0.5
			c-0.7,0.5-1,0.9-1.5,1.4c-0.8,0.9-1,1.8-1.1,2.8c-0.4,3.3-1.4,6.5-2.4,9.7c-0.7,2.2-1,3.9-2.4,6.5c-2.8,5.6-6.5,9.9-12.9,11.2
			c-4.1,0.8-7.5-0.5-8.7-3.5c-1-2.4-0.5-4.7,0.5-6.9c1.7-3.9,4.4-7.2,7.4-10.2c0.6-0.6-0.1-0.9-0.3-1.1c-1.3-1-1.7-2.4-1.8-4
			c-0.1-1.9-0.2-3.9,0.3-5.8c0.1-0.6-0.2-0.5-0.6-0.4c-1.4,0.7-2.9,1.2-4.2,2c-1.6,0.9-3.2,1.5-5,1.7c-0.4,0.1-0.8,0.3-0.5,0.6
			c1.1,0.9,1.3,2.4,1.9,3.5c0.9,1.8,1.8,3.8,1.7,6c-0.3,4.8-1,9.4-3.6,13.6c-1.4,2.2-3.4,3.5-5.7,4.3c-1.5,0.5-2.9,0.9-4.6,0.9
			c-2.2,0.2-4-0.9-5.5-2.2c-2.5-2.1-3.5-5-4-8.1c-0.3-2-0.4-4,0.3-6c0-0.1,0-0.3-0.1-0.5c-0.1,0.1-0.3,0.2-0.4,0.3
			c-1.4,1.3-1.1,2.2-1.2,3.9c-0.1,2.2,0.2,4.3-0.1,6.8c-0.5,2.1-0.7,4.3-1.6,6.4c-1.1,2.8-3.4,3.5-6.1,3.7c-1.5,0.1-3.1-0.1-4.5-0.5
			c-1.9-0.5-4.1-3.2-4.6-5.1c-0.6-2.2-0.7-4.3,0.3-6.2c1.1-2.1,2.8-3.7,4.8-5c1.8-1.2,2.1-2.3,1.5-4.3c0,0-0.2-0.8-0.3-1
			c-0.2-0.5-0.2-1.1-0.6-1c-0.5,0.1-0.9,0.9-1.1,1.4c-1.1,2.4-3.1,4-5.2,5.4c-1.6,1.1-3.8,1.8-5.8,2.1c-2.5,0.3-5,0.2-7.5-0.2
			c-2-0.3-3.7-1.1-5.6-2.3c-2-1.3-3-2.6-4.5-3.9c-1.1-0.9-1.9-2-2.8-3.1c-2.9-3.5-4.8-7.6-6.5-11.8c-1.5-3.7-3.4-7.3-4-11.3
			c-0.1-0.7-0.6-1.7-0.1-1.9c0.5-0.3,1.1,0.7,1.7,1c2.8,1.9,5.9,3,9.4,2.9c0.9,0,1.8-0.1,2.6-0.3c0.4-0.1,0.7,0.1,0.8,0.5
			c0.6,3.9,2.3,7.3,4.5,10.4c1.4,2,3.3,3.5,4.9,5.3c2,2.1,4.7,3.6,7.1,3.5c1.8-0.1,3-0.6,3.8-1.7c2.2-3,3.5-6.3,3.8-10
			c0.1-1.9,0.6-3.7,0.5-5.6c-0.1-1.2,1.1-1.2,1.8-1.5c3.3-1.1,6.4-2.5,9-4.8c0.6-0.5,1-1.1,1.4-1.7c0.2-0.3,0.9-1.5,1.3-1.3
			c0.3,0.2,0,1.4-0.3,1.9c-0.6,1.1-1.5,1.8-1.9,2.9c-0.8,2.4-0.9,4.9-1.2,7.4c-0.7,4.5,1.8,8.4,2.8,12.5c0.1,0.6,0.3,1.1,0.5,1.7
			c0.2,0.5,0.2,1.4,1.4,0.5c2.7-2.2,5.4-4.5,7.9-6.9c2.4-2.3,5.3-3.3,8.5-3.2c4.9,0.1,8.9-1.9,12.7-4.6c2.5-1.7,4.9-3.4,7.2-5.4
			c1.9-1.6,3.8-3.1,5.9-4.3c2.4-1.4,4.8-1.6,7.5-1.5c1.7,0,3.5,1.3,4.3,2.1c0.3,0.4,0.6,0.9,0.6,1.4c0,1.6,0.2,2.9,0,4.6
			c0,0.1,0,0.5,0,0.6c0.1-0.1,0.3-0.3,0.3-0.4c1.3-1.7,2.8-3.2,4-5c2.2-3.5,5-6.7,8.4-9.2c1.5-1.1,3-2,5-1.6
			c1.9,0.4,2.9,1.3,2.6,3.3c-0.4,2.8-0.4,5.7-0.3,8.5c0.1,1.3,0,2.6,0.1,4c0.1,0.9,0.4,1.3,1.5,1.3c2.5,0,3.4-1.7,4.7-3.2
			c1.8-2.5,3-4.9,4.3-7.4c1.3-2.4,2.4-4.8,3.3-7.3c0.7-1.9,1.5-3.8,2.2-5.7c1.3-3.7,2.5-7.4,3.3-11.2c0.4-1.7,0.8-3.4,1-5.2
			c0-0.3,0-0.5,0.3-0.7c0.5,0,0.6,0.4,0.6,0.8c0,1.8-0.2,3.6-0.6,5.4c-0.6,2.7-1,5.5-1.6,8.3c-0.3,1.4-0.8,2.8-1.2,4.2
			c-1,3.1-2.1,6.3-3.2,9.4c-1.3,3.3-2.3,6.3-4.4,9.8c-1.5,2.7-2.8,4.5-4.5,6.5c-1.4,1.7-2.9,3.1-4.7,4.4c-1.1,0.8-3,0.4-3.9-0.8
			c-0.3-0.4-0.4-0.3-0.5,0c-0.4,0.9-0.7,1.9-1,2.9c-0.8,2.5-2.3,4.3-3.6,6.4c-1.2,1.8-2.4,3.6-4.5,4.3c-3.7,1.3-7.6,0.2-8.1-4.9
			C142.3,161.7,142.2,160.3,142.2,158.7z M48.1,147c-0.2-0.6-0.2-1.8-1.1-1.8c-1,0-2.1,0-3.2-0.1c-2-0.2-3.4-0.2-5.4-1
			c-0.2-0.1-1.1-0.5-1.5-0.7c-0.1-0.1,0.2,0.8,0.2,1c0.5,1.4,1.1,2.8,1.7,4.2c0.8,1.8,1.5,3.6,2.1,5.5c1.4,3,2.8,5.6,4.7,8.2
			c1.5,2.2,3.1,4.2,5.2,5.9c2.2,1.8,4.6,3.4,7.3,4.3c2,0.7,4.4,0.6,6.5,0.4c3.1-0.3,6-1.3,8.3-3.7c2.7-2.9,4.5-6.3,4.7-10.3
			c0-0.2-0.1-0.5,0.3-0.6c0.1,0,0.3-0.1,0.5,0.1c0.2,0.4,0.3,0.7,0.4,1.4c0.4,3.1,1.5,6,2.1,9c0.1,0.5,0.3,0.6,0.7,0.3
			c1.2-0.9,2.5-1.8,3.7-2.8c0.3-0.2,0.7-0.6,0.5-1.1c-0.7-2.8-1.4-5.5-2.2-8.3c-0.5-1.7-1.1-3.1-1.3-5.1c-0.2-3.1,0.2-5.6,0.6-8.4
			c0.1-0.7-0.1-0.8-0.7-0.5c-1.4,0.6-2.8,1.2-4.2,1.8c-0.6,0.2-0.9,0.6-1.1,1.2c-0.5,2.4-1,4.7-1.5,7.1c-0.7,3.4-1.6,6.6-4,9.3
			c-2.1,2.4-6.3,3.6-9.3,2.1c-1.7-0.9-3.2-2.1-4.6-3.4c-1.5-1.4-3-2.6-4.2-4.3c-1.4-1.9-2.6-3.9-3.6-6.2
			C48.8,149.5,48.5,148.6,48.1,147z M141.7,144.3c0-0.7,0-1.4,0-2.1c0.1-0.8-0.3-1.3-0.9-1.7c-3.6-2.6-7.2-1.8-10.8,0
			c-3.3,1.7-6,4.2-8.7,6.6c-3.7,3.2-7.7,5.5-12.4,6.8c-0.2,0.1-0.9,0.1-0.8,0.4c0.1,0.3,0.4,0.8,1,0.7c1.5-0.3,2.7-0.5,4.4-1.1
			c2.5-1.2,5-2.4,7.5-3.6c0.4-0.2,0.7-0.2,0.6,0.3c-0.2,1.6-0.6,3.1-0.7,4.7c-0.1,1.5-0.3,3.1,0.5,4.4c1.7,2.7,4.9,3.1,7.7,2.1
			c2.8-1,5.1-3,7.5-4.6c0.2-0.1,0.4-0.5,0.7-0.2c0.3,0.3,0.2,0.6,0,0.8c-1.1,1.9-1.5,4.1-2.2,6.2c-0.9,2.7-2.1,5.4-3.7,7.8
			c-2.2,3.4-4.8,6.2-8.8,7.4c-1.1,0.3-3,0.1-3.7-1.3c-0.9-2.4-0.7-4.8,0.9-6.9c2.3-3.1,5.3-5.5,8.7-7.3c1.7-0.9,3.5-1.8,5.1-2.7
			c0.2-0.1,0.2-0.1,0.4-0.3c0.1-0.1,0.5-0.5,0.5-0.5c-0.2,0.1-0.8,0.5-1,0.7c-1.6,1-3.2,1.7-4.9,2.2c-1.5,0.5-3,0.2-4.4,0.6
			c-2.2,0.6-3.5,2.2-4.8,3.9c-2,2.7-3.9,5.4-4.5,8.8c-0.4,2.1,0.4,4.8,1.9,5.6c1.9,1,4.5,1.2,6.5,0.6c2.3-0.8,3.7-1.5,6-3.5
			c0.7-0.6,1.2-1.3,1.8-1.9c1.4-1.5,2.4-2.9,3.2-4.8c1.2-2.4,1.9-4.4,2.6-6.7c0.6-1.8,0.9-3.6,1.4-5.4c0.6-2.3,0.4-4.8,1.6-7
			C141.5,150.5,141.8,147.4,141.7,144.3z M73.4,180.3c0.1,1.5,0.4,2.7,1.2,3.8c1.3,1.9,3.1,2.9,5.5,3.1c2.9,0.2,5.6-1.5,6.2-4.4
			c0.7-3.9,0.6-7.7,0.3-11.6c0-0.2,0.1-0.4-0.3-0.2c-1.7,0.8-3.1,2-4.5,3.1c-0.5,0.4-0.6,0.9-0.3,1.6c0.7,1.8,1,3.8,0.1,5.7
			c-0.4,0.8-1,1.6-1.9,1.6c-2.3,0.1-3.9-2.6-3-4.6c1.1-2.5,3.1-4.3,5.1-5.9c3-2.4,5.9-4.9,9.2-6.9c0.2-0.1,0.9-0.8,1.1-0.9
			c0,0.3-0.3,1.1-0.3,1.4c-0.2,2.2-0.8,4.4-0.5,6.6c0.3,2.2,0.6,4.3,2,6.2c1.2,1.5,2.4,3.1,4.4,3.6c3.7,0.6,6.5-0.3,9-2.6
			c1.6-1.4,2.7-3.3,3.5-5.3c1.1-2.7,1.9-5.4,1.8-8.3c-0.1-2.7-1-5.6-2.6-7.8c-0.8-1.2-1.6-2.2-2.7-3.2c-1.6-1.4-4.9-0.9-6.7,0.2
			c-3.1,2.1-2.1,1.4-3.7,2.9c-2.4,1.9-4.1,3.8-6.2,5.4c-2.1,1.7-4.1,3.2-6.1,4.9c-2.8,2.4-6.3,3.9-8.5,7.1
			C74.5,177.1,73.6,178.7,73.4,180.3z M148.1,167.2c0.8,0,1.5-0.2,2.3-0.6c3.5-1.9,4.9-5.3,6.6-8.6c1.1-2.2,1.4-4.7,2.6-6.9
			c0.2-0.4,0.4-0.6,0.8-0.6c0.5,0.1,0.4,0.5,0.4,0.9c0,0.5,0,1-0.1,1.5c0,0.5,0.6,1.2,1,1.4c1.1,0.5,1.7,0.4,2.7-0.6
			c1.5-1.5,3-2.9,4.3-4.5c1.9-2.5,3.8-4.8,5.3-7.7c1.9-3.9,3.4-7.8,4.8-11.7c0.8-2,2.8-9.1,2.8-9.4c-0.1,0-2.7,7.1-3.5,9.4
			c-1.3,3.3-2.6,6-4.2,8.8c-0.9,1.8-2.1,3.8-3.1,5.4c-1.4,2-2.8,3.6-4.7,4.8c-1.3,0.5-2,0.4-2.9,0c-1.3-1.2-1.4-2-1.4-3.9
			c0.4-4.3,0.6-8.7-0.1-12.6c0-0.7-0.9-1.1-1.8-1c-3.1,0.9-5.4,3-7.6,5.2c-1.3,1.3-2.2,2.9-3.3,4.4c-1.3,1.9-2.9,3.5-4.3,5.3
			c-1,1.4-2.3,2.3-2.6,4.3c0,0.2-0.2,0.9-0.3,1.5c0.1,0,0.7-0.7,0.7-0.7c0.8-0.8,1.5-1.6,2.3-2.5c1.4-1.6,2-3.5,3.6-5.4
			c0.4-0.3,0.9-0.9,1.3-0.6c0.5,0.4-0.2,1-0.5,1.2c-1.9,1.8-2.9,4.2-3.8,6.5c-1.6,4.4-2.2,8.9-1.2,13.5
			C144.7,166.1,146.1,167.3,148.1,167.2z M122.3,178.3c1.5-0.1,2.9-1,4.1-2.2c4-4,6.9-8.7,8.4-14.2c0-0.1,0.1-0.2,0.1-0.4
			c-0.1,0.1-0.2,0.1-0.3,0.2c-1.4,0.9-2.8,1.9-4.2,2.7c-2.8,1.6-5.7,2.8-7.9,5.4c-1.5,1.8-2.6,3.6-2.5,6
			C120,177.3,120.7,178.2,122.3,178.3z M78.1,180.2c0,0.5,0.5,1.2,1.4,1.3c1,0.1,1.1-0.7,1.2-1.5c0.2-1.2-0.3-2.4-0.4-3.5
			c0-0.3-0.3-0.4-0.4-0.2C78.9,177.3,78.1,178.3,78.1,180.2z"/>
		<path class="st0" d="M49.6,86.3c2.4-0.1,5.3-0.5,8.2,0c2.6,0.4,5.1,1,7.4,2.7c4.4,3.2,7.1,7.4,8.8,12.4c1.2,3.4,0.9,6.9,0.2,10.4
			c-0.8,4.1-3,7.5-5.7,10.6c-2.5,2.8-5.4,5.3-9.1,6.6c-2.6,1-5.3,2.2-8.1,2.1c-2.7-0.1-5.5,0.1-8.2-0.9c-3.2-1.1-6.1-2.4-8.7-4.6
			c-2.2-1.8-3.5-4.2-4.5-6.7c-1.5-3.8-2.3-8-2.5-12.1c-0.2-4.6,0.3-9.3,1.3-13.8c0.3-1.3,0.7-2.7,1.6-3.8c0.7-0.8,1.2-0.3,1.2,0.4
			c0.2,1.9,0.7,3.8,1.2,5.7c0.9,3.7,2.5,7.1,4.9,10.1c1.4,1.8,2.8,3.6,4.5,5.1c2.2,2,4.7,2.6,7.5,2.1c3.2-0.6,6.3-4.5,6.4-8.2
			c0.1-3.2-1.1-5.5-3.8-7c-1.5-0.8-3-1.3-4.8-1.4c-3.7-0.2-7-1.6-10-3.8c-3.3-2.4-5.2-7.9-3.9-12c1.2-3.7,2.7-7.1,5.9-9.5
			c1.7-1.2,3.5-2.2,5.6-2.9c2.1-0.6,4.2-1,6.4-0.6c2.1,0.4,4.8,3.3,5.5,5.3c0.7,2.1,1.6,4.2,2.3,6.4c0.5,1.4,0.2,1.9-1.4,2
			c-2.3,0.2-4.4,1-6.4,2.1c-0.6,0.3-1.5,0.9-2,0.4c-0.6-0.5-0.3-1.6-0.1-2.4c0.3-1.6-0.8-3.8-2.2-4.5c-2-0.9-4.5-0.5-5.6,0.8
			c-1.6,2-1.2,5.4,0.8,7.4c1.5,1.4,3.4,1.4,5.3,1.5C48,86.3,48.6,86.3,49.6,86.3z M29.6,111.1c0,1.4,0.5,2.6,0.8,3.8
			c1,3.4,2.5,6,5,8.7c1.8,1.4,3.4,3,5.5,3.8c3.3,1.3,6.7,2,10.3,1.7c2.7-0.2,5.2-0.6,7.6-2c0.5-0.3,1.2-0.4,1.7-0.8
			c2.6-2.1,5.4-3.9,7.6-6.5c2.7-3.2,4.6-6.8,4.7-11c0.1-3.9-0.6-7.8-2.2-11.4C70,96,69.4,95,68.2,93.7c-2.3-2-4.8-3.7-7.7-5
			c-2.7-1.2-5.4-1.1-8.1-0.8c-2.6,0.3-5.1,0.6-7.6-0.2c-2.9-0.9-5.1-2.5-5.8-5.6c-0.5-2.2,1.2-6.1,3.2-7.4c1.6-1,4.5-1.2,5.5-0.2
			c1.7,1.6,2.8,3.6,3.1,6c0.1,1,0.6,1,1.4,0.8c1.6-0.6,3.2-1.2,4.9-1.5c0.6-0.1,0.8-0.4,0.6-1c-1.1-3.2-2.2-6.4-5.3-8.5
			c-2.4-1.6-4.8-2-7.2-1.1c-4.8,1.7-7.8,5.5-9.7,9.9c-2.1,3.9-0.6,8.7,2.5,11.7c2.8,2.7,6.3,3.4,9.8,4.1c1.9,0.4,3.8,0.6,5.6,1.4
			c1.2,0.5,2.4,1,3.2,2.3c1.5,2.4,1.7,4.9,1.4,7.7c-0.3,3.5-2.3,5.8-4.7,7.6c-3.5,2.6-7.3,1.9-10.9-0.3c-1.6-1-2.8-1.7-4-3.2
			c-1.8-1.6-3.3-3.9-4.7-5.8c-1.7-2.5-2.2-5.4-3.2-8.2c-0.1-0.2,0-0.5-0.3-0.4c-0.1,0-0.3,0.2-0.3,0.3c-0.2,1.6-0.6,3.1-0.6,4.7
			C29.2,104.2,29.1,107.7,29.6,111.1z"/>
		<path class="st0" d="M119.2,47.4c-0.2-4.2-0.9-8.2-3-11.9c-0.5-0.9,0.2-1.1,0.7-1.1c3.2-0.2,6.3,0,9.5,0.5
			c0.9,0.1,1.7,0.5,2.6,0.3c0.2,0,0.6,0.1,0.7,0.3c0.1,0.3-0.1,0.5-0.3,0.8c-2.3,2.5-3.5,5.4-3.6,8.8c-0.1,3.1-0.3,6.2-0.2,9.3
			c0.2,4,1.2,7.8,2.7,11.6c1.2,2.9,3.2,5,5.5,6.6c1.7,1.2,3.9,1.7,6.1,1.1c0.7-0.2,1.4-0.4,1.8,0.3c0.4,0.7-0.3,1-0.7,1.5
			c-1.9,2.4-5.7,2.3-8.5,1.1c-3.5-1.5-5.5-4.2-7-7.5c-1.3-3-2.5-6-4.8-8.5c-0.2-0.3-1-1.2-1.4-1.7c0.1,0.4,0.6,1.7,0.7,2
			c0.7,2.9,1.3,5.9,2.3,8.8c0.5,1.4,1.3,2.6,2,3.9c0.2,0.3,0.3,0.6,0.2,0.9c-0.1,0.3-0.4,0.3-0.6,0.3c-3.4-0.9-5.3,1.4-7.4,3.4
			c-0.2,0.2-0.3,0.4-0.7,0.3c-0.3-0.1-0.5-0.3-0.6-0.7c-0.5-3.3-0.3-6.7-1.2-9.9c-0.9-3.3-1.7-6.7-3.2-9.9c-1.4-2.9-3.1-5.6-5.3-8
			c-2.9-3.1-6.2-5.7-10.1-7.5c-2.1-1-4.2-0.7-6.3-1c-0.3,0-0.7,0.2-0.7-0.3c0-0.4,0.4-0.6,0.7-0.8c1.3-0.6,2.8-0.9,4.2-0.7
			c1.9,0.1,3.9-0.3,5.8,0c2.5,0.4,4.9,1,7.1,2.2c2.5,1.3,5,2.4,7.6,3.5c1.4,0.6,2.7,1.6,3.9,2.6c0.4,0.3,1,1.3,1.4,1.6
			C119.3,48.7,119.2,47.9,119.2,47.4z M120.4,51c-0.1,0.3,0.2,1-0.3,1.1c-0.4,0.1-0.7-0.5-0.9-0.9c-1.9-2.7-4.4-4.6-7.4-5.8
			c-2.6-1.1-5.1-2.2-7.7-3.2c-1.9-0.8-4-1.1-6-1.2c-0.1,0-1.9,0-2.1,0.1c0,0.1,1.6,0.6,1.7,0.7c0.4,0.2,0.7,0.3,1.1,0.6
			c2.9,2.1,5.8,4.2,8.4,6.8c3.6,3.6,6.1,7.8,7.2,12.7c1,4.3,1.5,8.8,2.2,13.2c0,0.3,0,0.6,0.3,0.7c0.3,0.1,0.5,0,0.6-0.2
			c1-1,2.1-1.7,3.5-2c0.9-0.2,1-0.6,0.8-1.4c-0.6-2.1-1.2-4.2-1.7-6.4c-0.8-3.8-1.8-7.5-4.4-10.6c-0.2-0.3-0.7-0.5-0.3-0.9
			c0.3-0.4,0.7,0,1,0.1c4.4,1.9,6.4,6.1,8.7,10c1.8,4.9,4.6,7.3,4.7,7.4c-2.8-4.7-3.7-7.6-3.8-7.8c-0.3-0.7-0.5-1.6-0.7-2.4
			c-0.7-3.2-0.6-6.4-0.5-9.6c0.1-3,0.1-6.1,0.5-9.1c0.3-1.9,0.7-3.8,1.8-5.5c0.1-0.2,0.4-0.7-0.2-0.7c-0.6,0-1.1-0.4-1.7-0.4
			c-2-0.2-4.1,0.1-6.1-0.3c-0.4-0.1-0.6,0-0.5,0.6c0.1,0.6,0.4,1,0.5,1.5C120.2,42.2,120.5,46.6,120.4,51z"/>
		<path class="st0" d="M64.5,68.9c0-1.8-0.2-3-0.2-4.9c0-0.9-0.5-0.7-1-0.4c-2.3,1.4-3.9,3.5-5.4,5.6c-0.6,0.9-0.8,0.5-1.3-0.1
			c-1.8-2.2-3.2-4.8-5.9-6.1c-1.5-0.7-1.7-1.2-0.6-2.6c2.4-3,5.6-5.1,8.6-7.5c2-1.6,4.4-2.8,6.7-4.1c2.3-1.3,4.8-2.1,7.1-3.3
			c3-1.6,6.4-2.1,9.5-3.2c0.9-0.3,2-0.3,3-0.4c0.5-0.1,0.8,0.2,0.7,0.7c-0.4,1.8-0.4,3.6-0.1,5.4c0.2,1.4-0.8,1.8-1.7,2.1
			c-4,1.4-7.5,3.5-10.7,6.2c-0.3,0.3-0.6,0.6-0.6,1c0.1,3,0.1,6.1,0.5,9.1c0.6,3.5,1.7,6.8,2.5,10.2c0.8,3.1,1.8,6.1,3.1,8.9
			c0.7,1.5,2.2,2.4,3.1,3.7c0.3,0.4,0.4,0.7,0.1,1.2c-1.5,2.6-3,5.3-3.3,8.4c-0.1,0.8-0.5,1.5-0.7,2.3c-0.2,0.6-0.5,0.4-0.9,0.2
			c-1.8-0.5-2.2-2.2-3-3.5c-1.1-2-2.2-4.1-3.2-6.2c-0.9-2-1.8-4-2.6-6c-0.7-1.8-1.2-3.7-1.8-5.5c-0.9-2.9-1.3-5.8-1.9-8.8
			c-0.1-0.6-0.2-1.1-0.2-1.7C64.5,69.5,64.5,69,64.5,68.9z M84.3,44c0.1-0.6-0.1-0.7-0.7-0.6c-3,0.6-5.9,1.3-8.7,2.6
			c-2.3,1.1-4.7,1.7-6.9,2.9c-1.8,0.9-3.3,2.2-5.1,3.2c-4,2.3-7.9,4.8-10.9,8.3c-0.5,0.5-1.1,1.2,0,1.8c1.3,0.7,2.3,1.6,3.1,2.9
			c0.3,0.5,0.7,0.9,1.1,1.4c0.3,0.4,0.6,1.1,1.3,0.4c0.4-0.4,0.7-1,1.1-1.4c1.9-1.8,3.7-3.3,6.1-4.4c0.6-0.3,0.7,0,0.8,0.5
			c0.1,1.1,0.2,2.1,0.2,3.2c-0.1,5,1.2,9.7,2.6,14.4c1.4,4.6,3.4,9.1,5.3,13.5c0.7,1.6,1.5,3.2,2.3,4.8c0.2,0.3,0.4,0.6,0.8,0.6
			c0.1,0,0.4-0.1,0.4-0.3c0.7-2.5,2.1-4.7,3.1-7.1c0.2-0.4,0.1-0.7-0.2-1c-0.9-1.1-1.8-2.1-2.5-3.3c-2-3.1-3.1-6.6-3.9-10.2
			c-0.7-3.2-1-6.4-1.4-9.7c-0.4-2.7-0.1-5.4-0.7-8.1c-0.3-1.1-0.7-2.2,0.7-3c1.6-1,2.8-2.5,4.5-3.4c2.2-1.3,4.5-2.1,6.8-3.3
			c0.4-0.2,0.7-0.5,0.7-1C84.1,46.6,84.2,45.3,84.3,44z"/>
		<path class="st0" d="M86.5,73.7c1.2,3.3,2.6,6.2,4.4,8.9c0.7,1,0.4,1.7-0.8,1.9c-2.3,0.4-4.2,1.7-6.4,2.5c-0.5,0.2-0.6,0-0.9-0.4
			c-2.1-3.7-3.5-7.6-4.6-11.6c-0.6-2.2-1.2-4.4-1.4-6.7c-0.2-2.3-0.2-4.1-0.4-6.1c-0.2-1.9-0.3-3.9-0.2-5.8c0-1.4,1.4-1.7,2.4-2.2
			c0.7-0.4,1.5-0.6,2.3-0.8c0.5-0.1,0.7,0.1,0.8,0.6c0.1,0.9,0.2,1.7,0.4,2.5c0,0.2,0.2,1.1,0.3,1.3c0.1-0.2,0.3-0.9,0.4-1.1
			c0.5-1.4,1.2-2.9,2.4-3.8c2.1-1.6,4-3.8,7.1-3.1c2.9,0.6,4,2.2,4.1,5.5c0.1,2.7-1,5.1-2,7.6c-0.6,1.5-1.3,3-2.6,4.1
			c-0.3,0.3-0.6,0.7-1,0.8c-1.4,0.5-0.5,1.1,0.2,1.7c1.9,1.6,3.9,3,6,4.2c1.4,0.8,3.2,2.1,4.7,2.8c2.9,1.6,5.2,2.3,8.3,3.3
			c3.1,1,5.9,0.3,9-0.6c0.7-0.2,1,0.6,0.9,1.2c-0.3,1-1,1.8-1.5,2.6c-1.5,2.6-2.9,5.1-4.4,7.8c-0.4,0.7-0.9,1.2-1.2,2
			c-0.4,1.1-1.2,1-1.8,0.3c-1.8-2.2-4.2-3.8-6.5-5.4c-2.4-1.7-5.1-3.2-7.6-4.8c-2.2-1.4-4.2-3-6.2-4.7
			C88.9,76.8,87.9,75.2,86.5,73.7z M113.6,81.7c-1,0.1-1.9-0.1-2.8-0.2c-2.3-0.3-4.5-1.2-6.7-2c-3.8-1.5-6.8-4.3-10.3-6.3
			c-2.2-1.2-3.9-3.2-5.9-4.7c-0.4-0.2-0.9-0.7,0.1-1.3c2.2-1.3,3.8-3.2,5.1-5.5c1.2-2,1.2-4.1,1.5-6.3c0.3-2.7-1.5-4.5-4.2-4.3
			c-1.2,0.1-2,0.8-2.9,1.5c-2.3,2-3.7,4.7-4.1,7.8c-0.1,0.4-0.3,0.9-0.8,0.9c-0.5,0.1-0.9-0.2-1-0.7c-0.4-1.3-0.9-2.6-1.3-3.9
			c-0.1-0.3-0.2-0.8-0.6-0.6c-0.9,0.5-2.1,0.9-1.9,2.4c0.3,2.1,0.5,4.2,0.5,6.3c0,3,0.6,6,1.2,8.9c0.8,4,2.3,7.6,4.1,11.2
			c0.3,0.6,0.5,0.7,1.1,0.5c1.4-0.6,2.7-1.2,4.1-1.7c0.7-0.3,0.6-0.4,0.3-0.9c-1.9-3.5-3.3-7.1-4-11.1c-0.1-0.8,0.2-0.7,0.7-0.6
			c0.5,0.1,0.7,0.5,0.9,0.8c1.2,1.6,2.6,3.2,4.1,4.5c2.4,2.3,5,4.4,8,6c3.4,1.8,6.3,4,9.4,6.3c1,0.8,1.9,1.3,2.7,2.4
			c0.2,0.3,0.7,0.8,1,0.2c0.5-1.5,1.2-2.7,1.9-3.9c1.2-2.3,2.5-4.4,4.2-6.3c0.1-0.1,0.1-0.3,0.2-0.4c-0.1,0-1.4,0.4-1.6,0.5
			C115.1,81.6,115.2,81.5,113.6,81.7z"/>
		<path class="st0" d="M140.7,71.6c-2.4,0-4.6-1.5-6.8-3c-2.3-1.6-4.1-3.9-5.6-6.3c-1-1.7-1.2-3.6-1.5-5.5c-0.5-3.5,0.1-6.9,1-10.2
			c0.6-2.5,2-4.5,3.9-6.2c1.8-1.7,3.9-2.9,6.3-2.8c4.6,0.3,8.6,2,11.5,5.8c0.3,0.4,0.3,0.6-0.3,0.9c-1.6,0.7-3.1,1.5-4.7,2.2
			c-0.8,0.3-1.6,0.5-2.2-0.5c-1.4-2.1-4.4-1.9-6.1,0.5c-2.1,2.9-3.3,6.1-2.2,9.7c0.8,2.6,2.8,4.3,5.3,5.1c2.3,0.8,6.3-1,7.5-3.2
			c0.6-1,1.6-1.9,1.5-3.3c-0.1-0.6-0.3-0.7-0.8-0.6c-0.6,0.2-1.4,0.4-1.8,0.8c-1.1,1-1.5,0.6-2-0.6c-0.5-1.4-1.2-2.7-1.2-4.2
			c-0.1-1.7,1.5-1.3,2.4-1.5c3.2-0.7,6.5-1.3,9.7-2.4c2.1-0.8,3.4,0.8,3.4,2.8c0,0.2,0,0.4,0,0.6c0,1.2,0.6,2.7-1.6,2.7
			c-1,0-1.4,0.6-1.4,1.8c0.1,4.3-0.9,8.4-3.5,11.7C148.7,69.1,145.5,71.5,140.7,71.6z M140.3,69.7c3.9-0.3,7-1.7,8.5-3.7
			c2.9-4,5.3-8.1,4.6-13.2c-0.1-0.7,0.3-1.3,1.1-1.3c1.1,0,2.1,0,2-1.5c-0.1-0.9-0.4-1.7-0.6-2.5c-0.1-0.3-0.8-0.1-1-0.1
			c-1.2,0.2-1.8,0.5-3,0.8c-2.4,0.5-4.8,1.3-7.3,1.6c-0.5,0.2-1,0.3-0.8,0.9c0.3,0.8,0.7,1.7,1.1,2.5c0.2,0.5,0.5,0.5,1,0.3
			c1-0.4,2-0.8,3-1.1c0.7-0.2,1.2,0.2,1,1.1c-0.4,1.9-0.8,3.8-2.1,5.3c-1.7,2-3.6,3.5-6.4,3.9c-1.9,0.2-3.5-0.3-5-1.4
			c-2.6-1.8-4.1-4.5-4.2-7.7c-0.1-2.7,0.9-5,2.4-7.3c2.2-3.4,5-4.3,8.4-1.6c0.4,0.3,0.8,0.3,1.2,0.1c0.9-0.4,1.5-0.9,2.4-1.2
			c0.7-0.3,0.8-0.5,0.4-0.9c-1-0.8-2.2-1.5-3.2-2.2c-1.9-1.5-4-1.5-6.3-1.4c-2,0.1-3.5,0.8-5,2.3c-2.5,2.6-3.6,5.8-4.1,9.2
			c-0.5,3.2-0.6,6.3,0.5,9.4c0.7,2.2,2.2,3.9,3.7,5.7C134.9,68.4,137.6,69.5,140.3,69.7z"/>
		<path class="st0" d="M95.6,65.5c0.4-2.6,0.2-5.1,1.3-7.4c1.7-3.4,7.3-5.2,10.7-2c1.9,1.8,3.1,3.9,3.7,6.5c0.6,2.7,0.5,5.2-0.5,7.7
			c-1.1,2.7-3.1,4-5.9,4.4c-3.8,0.5-7.5-2.2-8.7-5.4C95.8,68.1,95.8,66.7,95.6,65.5z M109.9,66.2c0.2-4.5-1.6-7-3.9-9.2
			c-2.6-2.6-6-0.5-7.1,1.5c-1.4,2.6-1.5,5.4-1,8.3c0.3,1.5,0.3,3.1,1.4,4.3c2.3,2.5,5.9,1.8,8,0.4C109.6,70.1,109.8,67.6,109.9,66.2
			z"/>
		<path class="st0" d="M36.2,138.7c-1.8,0.2-3.2-0.8-3.7-2.1c-0.6-1.6-0.8-3.7,1.8-4.4c2.2-0.6,4.7-0.2,5.4,1.1c0.8,1.4,0.7,2.7,0,4
			C38.8,138.6,37.5,138.6,36.2,138.7z M35.7,133.3c-1.2,0-1.7,0.5-1.9,0.9c-0.3,1-0.2,3,2.7,3c1.3,0,1.6-0.6,1.6-1.7
			C38,134.2,37.1,133.3,35.7,133.3z"/>
		<path class="st0" d="M168.2,58.2c0,2.8-1.9,4.8-4.5,4.8c-2.1,0-4.5-2.6-4.3-5c0.2-2.1,1.7-4.9,4.9-4.7
			C166.6,53.5,168.2,55.4,168.2,58.2z M160.6,58.5c-0.4,1.7,1.5,3.3,3,3.2c1.8-0.1,3.7-1.9,3.6-3.8c-0.2-2-0.6-3.7-2.9-3.5
			C162.2,54.5,160.6,56.1,160.6,58.5z"/>
		<path class="st0" d="M172.3,68.2c-1.9,0-3.5-1.1-3.5-2.3c0-1.8,1.7-3.8,3.3-3.8c1.4,0,3.2,1.8,3.2,3.2
			C175.3,66.9,174,68.2,172.3,68.2z M172.1,67.2c0.9-0.2,2-0.5,2-1.7c0-1.2-0.5-1.9-1.8-2c-1.4,0-2.4,0.9-2.4,2.2
			C170,67.3,171.6,67.2,172.1,67.2z"/>
		<path class="st0" d="M175.8,75.5c-0.7,0-1.6-0.6-1.7-2c-0.1-1.3,1.8-3,3.1-2.7c0.9,0.2,2.1,0.7,2.3,2
			C179.6,74.2,178.2,75.5,175.8,75.5z M176.6,74.3c0.9-0.1,1.5-0.6,1.6-1.6c0.1-0.7-0.6-0.9-1.1-0.8c-0.8,0-1.7,0.2-1.7,1.3
			C175.4,74,175.9,74.4,176.6,74.3z"/>
		<path class="st0" d="M183.2,81.7c-0.1,1.7-1.2,2.1-2.4,2.5c-1.1,0.4-2.2,0.1-2.7-0.8c-0.2-0.6-0.2-1.4,0.1-1.9
			c0.4-0.8,0.9-1.4,2-1.7c0.9-0.1,2.4-0.3,3,1.2C183.2,81.2,183.2,81.4,183.2,81.7z M180.4,83.2c0.8-0.1,1.7-0.3,1.9-1.3
			c0.1-0.7-0.4-1-1.2-0.9c-1,0-1.7,0.5-1.8,1.5C179.1,83.3,180,83.2,180.4,83.2z"/>
		<path class="st0" d="M183.4,88.7c0,1.7-0.9,2.8-2,2.8c-1,0-1.3-0.6-1.3-1.5c0-1.4,1.2-2.9,2.4-2.9
			C183.7,87.1,183.4,88.1,183.4,88.7z M181.6,90.4c0.9-0.1,1.1-0.7,1.3-1.4c0.1-0.7-0.4-0.8-0.7-0.8c-0.6,0-1.3,0.5-1.3,1.7
			C180.9,90.3,181.2,90.3,181.6,90.4z"/>
		<path class="st0" d="M92,109.6c-1,0.1-1.9,0.1-2.9,0.2c-0.5,0.1-0.8-0.2-0.9-0.7c-0.4-4,0.3-7.8,3-10.9c0.4-0.4,0.7-0.9,1-1.3
			c0.3-0.4,0.8-0.9,1.2-0.6c0.4,0.3,0.4,1,0.2,1.5c-0.5,1.5-0.5,3-0.8,4.5c-0.4,2,0,3.9,0.4,5.8C93.7,109.5,93.1,109.6,92,109.6z
			 M92,99.4c0.1-0.3,0.1-0.4,0.2-0.9c-0.3,0.4-0.6,0.9-0.6,1c-1,2.6-1.9,5.1-1.7,8.1c0.1,0.4-0.1,0.9,0.6,0.8c0.5-0.1,1.5,0.2,1.4-1
			C91.4,104.8,91.6,102.1,92,99.4z"/>
		<path class="st0" d="M123,153.4c0.1-2.6,1.3-4.5,3.2-6.4c2-2.1,3.9-3.6,6.5-4.6c2-0.7,4-1.3,6.2-0.6c1,0.3,1.3,1,1.3,1.8
			c-0.1,2.8-0.9,5.4-2,8c-1.6,3.6-4.6,5.4-7.7,7.2c-2.9,1.6-6.4,0-7.2-3.5C123,154.7,122.9,154.2,123,153.4z M124.6,152.8
			c-0.1,1.9,0.2,3,0.6,3.5c1.2,1.6,2.9,2,5,1.1c2.9-1.2,5.2-3.1,6.6-6c1.2-2.6,1.6-5.3,2.1-8.1c0-0.2-0.1-0.4-0.3-0.4
			c-2.1-0.5-4.1,0-6,0.9c-1.4,0.7-2.6,1.5-3.9,2.6C126.5,148.4,124.8,150.5,124.6,152.8z"/>
		<path class="st0" d="M110.1,166.3c-0.2,3.9-1.1,8.2-4.7,11.3c-1.9,1.6-6.8,2.6-9.6,0.2c-3.7-3.2-3.7-7-3.1-11.2
			c0.3-1.8,1.3-3.1,2.5-4.3c1.8-1.7,3.6-3.5,5.5-5.1c2-1.7,5.7-1.4,7.3,1.3C109.4,160.7,110,163.2,110.1,166.3z M108.3,164.7
			c-0.1-1.3-0.6-3.6-1.9-5.7c-0.5-0.8-1.1-1.6-2.6-1.5c-1.9,0.2-3.1,1.1-4.3,2.2c-2.5,2.4-5.3,4.5-5.6,8.4c-0.3,3,0.2,5.7,2.1,8
			c1.3,1.6,5.8,1.8,7.6,0.4C107,173.8,108.5,170.1,108.3,164.7z"/>
		<path class="st0" d="M147.6,153.6c0-2.4,1.2-5,2.4-7.6c1.4-3.2,3.3-6.1,5.7-8.7c1.1-1.2,2.1-2.7,3.6-3.5c1.2-0.6,1.8,0,1.9,1
			c0.6,4.6,0.1,9.1-1.6,13.6c-1,2.5-2.1,4.9-3.6,7c-1.4,1.8-3.1,3.3-5.6,3.5c-0.8,0.1-1.5-0.4-1.8-0.9
			C148.1,156.9,147.6,155.5,147.6,153.6z M160.4,137.6c-0.1-0.7,0-1.7-0.7-2.1c-0.3-0.2-1.1,0.3-1.5,0.7c-2.3,2.4-4.1,5.1-5.8,7.9
			c-1.9,3-3.3,6.4-3.4,10.1c0,1,0.1,2.2,1.1,2.9c1,0.4,1.6,0.2,2.4-0.3c1.9-1.5,3.2-3.2,4.2-5.3
			C158.8,147.1,160.3,142.6,160.4,137.6z"/>
		<path class="st0" d="M88.9,57.3c1.5,0,2.4,0.9,2.4,2.3c0,1.7-1.3,3.1-2.6,3.1c-1.4,0-2.6-1.5-2.6-3.1C86,58,86.8,57.3,88.9,57.3z
			 M87.4,59.6c0,0.9-0.1,1.7,1.2,1.7c1.2,0,1.1-0.8,1.2-1.5c0.1-1-0.7-1.4-1.4-1.4C87.5,58.3,87.3,58.9,87.4,59.6z"/>
		<path class="st0" d="M106.3,63.3c-0.2,1.1-0.7,2-2,2.1c-2,0-3.5-1-3.4-2.3c0.1-1.6,1.2-3,2.4-2.9
			C104.7,60.1,106.4,61.9,106.3,63.3z M103.5,64.1c0.5-0.2,1.2-0.4,1.3-1.1c0-0.8-0.7-1.3-1.5-1.4c-0.7-0.1-0.8,0.5-0.8,1
			C102.4,63.3,102.4,64,103.5,64.1z"/>
	</g>
</g>
<line class="st1" x1="243" y1="255.9" x2="243" y2="-38"/>
</svg>
